<svg width="757" height="846" viewBox="0 0 757 846" fill="none" xmlns="http://www.w3.org/2000/svg">
<path d="M711.105 177.908L424.131 12.265C396.172 -4.08833 361.355 -4.08833 332.869 12.265L250.575 59.7423L561.815 242.266L626.701 279.721V492.314L757 418.46V257.565C756.473 224.33 739.064 194.261 711.105 177.908Z" fill="white"/>
<path d="M190.965 94.0316L45.3673 177.908C17.4084 194.262 0 224.331 0 257.037V588.851C0 621.558 17.4084 651.627 45.3673 667.98L129.771 717.04V566.695V289.216V279.721L320.208 169.995L190.965 94.0316Z" fill="white"/>
<path d="M251.63 636.329V786.674L332.341 833.096C360.3 849.449 395.117 849.449 423.604 833.096L710.578 667.453C738.537 651.099 755.945 621.03 755.945 588.324V490.731L377.709 709.127L251.63 636.329Z" fill="white"/>
<path d="M378.236 568.805L504.315 495.479V349.882L378.236 277.083L251.63 349.882V495.479L378.236 568.805Z" fill="white"/>
</svg>
