<?xml version="1.0" standalone="no"?>
<!DOCTYPE svg PUBLIC "-//W3C//DTD SVG 20010904//EN"
 "http://www.w3.org/TR/2001/REC-SVG-20010904/DTD/svg10.dtd">
<svg version="1.0" xmlns="http://www.w3.org/2000/svg"
 width="846.000000pt" height="846.000000pt" viewBox="0 0 846.000000 846.000000"
 preserveAspectRatio="xMidYMid meet">
<metadata>
Created by potrace 1.14, written by Peter Selinger 2001-2017
</metadata>
<g transform="translate(0.000000,846.000000) scale(0.100000,-0.100000)"
fill="#000000" stroke="none">
<path d="M4120 8454 c-174 -32 -245 -61 -465 -188 -177 -102 -332 -192 -413
-238 -186 -105 -267 -156 -267 -166 0 -10 55 -45 240 -152 61 -35 449 -263
479 -281 17 -10 44 -26 61 -35 16 -9 139 -81 273 -160 134 -79 248 -144 253
-144 5 0 9 -4 9 -8 0 -5 15 -15 33 -24 17 -8 144 -81 280 -162 137 -80 253
-146 258 -146 5 0 9 -4 9 -10 0 -5 4 -10 9 -10 4 0 147 -82 317 -181 608 -357
842 -494 1064 -622 124 -72 277 -160 340 -197 l115 -66 2 -1055 c1 -580 2
-1058 2 -1062 1 -9 15 -1 256 136 77 44 158 90 180 102 22 13 157 89 300 170
143 81 329 186 413 234 l153 86 -4 870 c-1 478 -6 881 -10 895 -4 14 -9 36
-12 50 -19 102 -98 264 -181 369 -82 104 -162 169 -320 260 -266 155 -821 475
-863 499 -25 14 -68 38 -95 55 -28 16 -71 41 -96 55 -25 14 -57 32 -71 41 -15
9 -57 34 -95 55 -38 21 -90 52 -117 67 -26 16 -52 29 -57 29 -6 0 -10 5 -10
10 0 6 -4 10 -9 10 -5 0 -90 46 -188 103 -98 57 -284 165 -413 239 -129 75
-251 145 -270 157 -19 11 -41 24 -49 27 -7 4 -106 61 -220 127 -333 193 -385
218 -516 247 -53 12 -263 21 -305 14z"/>
<path d="M2300 7486 c-67 -39 -518 -300 -563 -325 -54 -30 -211 -121 -227
-132 -17 -11 -327 -188 -508 -291 -283 -161 -412 -302 -502 -553 -51 -142 -50
-92 -50 -1965 1 -1671 1 -1749 19 -1830 51 -230 162 -407 339 -544 47 -35 465
-284 797 -473 39 -22 87 -50 107 -62 l37 -22 0 2143 c0 1179 0 2163 1 2188 l0
45 108 62 c59 33 195 112 302 173 107 62 211 122 230 133 19 11 109 62 200
115 91 52 179 103 195 112 17 9 87 50 155 90 69 40 143 82 165 94 22 12 44 25
50 29 5 5 119 71 253 147 l242 138 -72 45 c-60 36 -614 363 -682 401 -11 6
-42 26 -70 44 -28 17 -54 32 -58 32 -4 0 -39 20 -78 45 -39 25 -72 45 -75 45
-3 0 -41 23 -85 50 -44 28 -82 50 -85 50 -3 0 -23 11 -45 25 -22 14 -41 25
-42 24 -2 0 -28 -15 -58 -33z"/>
<path d="M4220 5682 c-8 -3 -32 -16 -53 -29 -21 -13 -53 -32 -70 -42 -52 -30
-612 -352 -877 -504 -135 -77 -247 -144 -250 -148 -3 -4 -5 -332 -4 -730 0
-705 0 -723 20 -733 10 -6 21 -14 24 -17 3 -4 32 -21 65 -38 33 -18 74 -40 90
-50 73 -43 284 -166 320 -186 64 -37 392 -227 488 -283 48 -29 90 -52 93 -52
3 0 18 -9 33 -19 15 -11 51 -33 81 -49 l55 -30 245 144 c135 79 256 150 270
157 14 8 135 78 270 157 135 79 261 152 280 163 114 64 189 113 192 127 5 23
3 1439 -3 1443 -2 2 -141 83 -309 179 -397 229 -412 237 -430 248 -41 26 -171
100 -176 100 -3 0 -25 14 -49 30 -24 17 -46 30 -48 30 -3 0 -38 19 -79 43
-144 85 -163 94 -178 89z"/>
<path d="M7965 3527 c-22 -12 -103 -59 -180 -103 -142 -83 -571 -331 -745
-431 -52 -30 -102 -58 -110 -63 -8 -5 -71 -41 -140 -81 -69 -40 -177 -102
-240 -139 -274 -159 -862 -499 -940 -543 -43 -24 -327 -188 -473 -274 -60 -35
-110 -63 -113 -63 -2 0 -28 -16 -58 -35 -30 -19 -57 -35 -60 -35 -5 0 -79 -43
-136 -79 -14 -8 -27 -16 -30 -16 -3 0 -16 -8 -30 -16 -49 -31 -130 -79 -134
-79 -2 0 -81 -45 -175 -100 -153 -90 -174 -99 -194 -89 -12 7 -152 87 -312
179 -159 92 -306 176 -325 187 -19 11 -160 93 -314 182 -153 89 -281 160 -284
156 -3 -3 -6 -339 -6 -746 l-1 -741 25 -18 c14 -9 50 -31 80 -47 30 -17 185
-105 343 -197 159 -91 292 -166 297 -166 5 0 10 -4 12 -9 2 -5 50 -31 108 -59
207 -99 376 -118 625 -68 11 2 52 16 90 31 79 29 127 55 350 185 50 29 110 64
135 78 25 14 99 56 165 95 66 38 134 77 150 87 135 77 511 293 553 319 29 17
55 31 58 31 3 0 17 9 32 19 15 10 167 99 337 197 171 97 378 217 462 265 161
94 201 117 273 157 25 13 52 31 61 38 8 8 18 14 22 14 9 0 434 247 485 282 64
44 171 154 220 227 62 90 122 226 137 308 2 16 9 42 14 60 8 27 17 1124 9
1123 -2 -1 -21 -11 -43 -23z"/>
</g>
</svg>
