<svg width="64" height="63" viewBox="0 0 64 63" fill="none" xmlns="http://www.w3.org/2000/svg">
<circle cx="32" cy="31.5" r="31" fill="white" stroke="#005EFF"/>
<path d="M21.8065 23.5455V41H19.6928V25.7614H19.5906L15.3292 28.5909V26.4432L19.6928 23.5455H21.8065ZM32.9627 23.5455V41H30.8491V25.7614H30.7468L26.4854 28.5909V26.4432L30.8491 23.5455H32.9627ZM39.5167 27.9091L42.6531 33.2614L45.7894 27.9091H48.1076L43.8803 34.4545L48.1076 41H45.7894L42.6531 35.9205L39.5167 41H37.1985L41.3576 34.4545L37.1985 27.9091H39.5167Z" fill="#005EFF"/>
<path d="M21.8065 23.5455H24.8065V20.5455H21.8065V23.5455ZM21.8065 41V44H24.8065V41H21.8065ZM19.6928 41H16.6928V44H19.6928V41ZM19.6928 25.7614H22.6928V22.7614H19.6928V25.7614ZM19.5906 25.7614V22.7614H18.6853L17.9311 23.2621L19.5906 25.7614ZM15.3292 28.5909H12.3292V34.184L16.9887 31.0901L15.3292 28.5909ZM15.3292 26.4432L13.6696 23.944L12.3292 24.8341V26.4432H15.3292ZM19.6928 23.5455V20.5455H18.7875L18.0332 21.0463L19.6928 23.5455ZM18.8065 23.5455V41H24.8065V23.5455H18.8065ZM21.8065 38H19.6928V44H21.8065V38ZM22.6928 41V25.7614H16.6928V41H22.6928ZM19.6928 22.7614H19.5906V28.7614H19.6928V22.7614ZM17.9311 23.2621L13.6697 26.0917L16.9887 31.0901L21.25 28.2606L17.9311 23.2621ZM18.3292 28.5909V26.4432H12.3292V28.5909H18.3292ZM16.9888 28.9423L21.3524 26.0446L18.0332 21.0463L13.6696 23.944L16.9888 28.9423ZM19.6928 26.5455H21.8065V20.5455H19.6928V26.5455ZM32.9627 23.5455H35.9627V20.5455H32.9627V23.5455ZM32.9627 41V44H35.9627V41H32.9627ZM30.8491 41H27.8491V44H30.8491V41ZM30.8491 25.7614H33.8491V22.7614H30.8491V25.7614ZM30.7468 25.7614V22.7614H29.8415L29.0873 23.2621L30.7468 25.7614ZM26.4854 28.5909H23.4854V34.184L28.1449 31.0901L26.4854 28.5909ZM26.4854 26.4432L24.8258 23.944L23.4854 24.8341V26.4432H26.4854ZM30.8491 23.5455V20.5455H29.9437L29.1895 21.0463L30.8491 23.5455ZM29.9627 23.5455V41H35.9627V23.5455H29.9627ZM32.9627 38H30.8491V44H32.9627V38ZM33.8491 41V25.7614H27.8491V41H33.8491ZM30.8491 22.7614H30.7468V28.7614H30.8491V22.7614ZM29.0873 23.2621L24.826 26.0917L28.1449 31.0901L32.4063 28.2606L29.0873 23.2621ZM29.4854 28.5909V26.4432H23.4854V28.5909H29.4854ZM28.145 28.9423L32.5087 26.0446L29.1895 21.0463L24.8258 23.944L28.145 28.9423ZM30.8491 26.5455H32.9627V20.5455H30.8491V26.5455ZM39.5167 27.9091L42.105 26.3924L41.2359 24.9091H39.5167V27.9091ZM42.6531 33.2614L40.0647 34.7781L42.6531 39.1952L45.2414 34.7781L42.6531 33.2614ZM45.7894 27.9091V24.9091H44.0702L43.2011 26.3924L45.7894 27.9091ZM48.1076 27.9091L50.6277 29.5367L53.6164 24.9091H48.1076V27.9091ZM43.8803 34.4545L41.3602 32.827L40.3091 34.4545L41.3602 36.0821L43.8803 34.4545ZM48.1076 41V44H53.6164L50.6277 39.3724L48.1076 41ZM45.7894 41L43.2368 42.5761L44.116 44H45.7894V41ZM42.6531 35.9205L45.2057 34.3443L42.6531 30.2102L40.1004 34.3443L42.6531 35.9205ZM39.5167 41V44H41.1901L42.0693 42.5761L39.5167 41ZM37.1985 41L34.6664 39.3911L31.7379 44H37.1985V41ZM41.3576 34.4545L43.8897 36.0635L44.912 34.4545L43.8897 32.8456L41.3576 34.4545ZM37.1985 27.9091V24.9091H31.7379L34.6664 29.518L37.1985 27.9091ZM36.9283 29.4258L40.0647 34.7781L45.2414 31.7446L42.105 26.3924L36.9283 29.4258ZM45.2414 34.7781L48.3778 29.4258L43.2011 26.3924L40.0647 31.7446L45.2414 34.7781ZM45.7894 30.9091H48.1076V24.9091H45.7894V30.9091ZM45.5875 26.2815L41.3602 32.827L46.4004 36.0821L50.6277 29.5367L45.5875 26.2815ZM41.3602 36.0821L45.5875 42.6276L50.6277 39.3724L46.4004 32.827L41.3602 36.0821ZM48.1076 38H45.7894V44H48.1076V38ZM48.342 39.4239L45.2057 34.3443L40.1004 37.4966L43.2368 42.5761L48.342 39.4239ZM40.1004 34.3443L36.9641 39.4239L42.0693 42.5761L45.2057 37.4966L40.1004 34.3443ZM39.5167 38H37.1985V44H39.5167V38ZM39.7306 42.6089L43.8897 36.0635L38.8255 32.8456L34.6664 39.3911L39.7306 42.6089ZM43.8897 32.8456L39.7306 26.3002L34.6664 29.518L38.8255 36.0635L43.8897 32.8456ZM37.1985 30.9091H39.5167V24.9091H37.1985V30.9091Z" fill="white"/>
</svg>
