<svg width="79" height="63" viewBox="0 0 79 63" fill="none" xmlns="http://www.w3.org/2000/svg">
<circle cx="39" cy="31.5" r="31" fill="white" stroke="#005EFF"/>
<path d="M9.93608 35.3636H11.3452V43.0682C11.3452 43.8636 11.1577 44.5739 10.7827 45.1989C10.4115 45.8201 9.88684 46.3106 9.20881 46.6705C8.53078 47.0265 7.73532 47.2045 6.82244 47.2045C5.90956 47.2045 5.11411 47.0265 4.43608 46.6705C3.75805 46.3106 3.23153 45.8201 2.85653 45.1989C2.48532 44.5739 2.29972 43.8636 2.29972 43.0682V35.3636H3.70881V42.9545C3.70881 43.5227 3.83381 44.0284 4.08381 44.4716C4.33381 44.911 4.68987 45.2576 5.15199 45.5114C5.6179 45.7614 6.17472 45.8864 6.82244 45.8864C7.47017 45.8864 8.02699 45.7614 8.4929 45.5114C8.95881 45.2576 9.31487 44.911 9.56108 44.4716C9.81108 44.0284 9.93608 43.5227 9.93608 42.9545V35.3636ZM20.5227 38.2727C20.4545 37.697 20.178 37.25 19.6932 36.9318C19.2083 36.6136 18.6136 36.4545 17.9091 36.4545C17.3939 36.4545 16.9432 36.5379 16.5568 36.7045C16.1742 36.8712 15.875 37.1004 15.6591 37.392C15.447 37.6837 15.3409 38.0152 15.3409 38.3864C15.3409 38.697 15.4148 38.964 15.5625 39.1875C15.714 39.4072 15.9072 39.5909 16.142 39.7386C16.3769 39.8826 16.6231 40.0019 16.8807 40.0966C17.1383 40.1875 17.375 40.2614 17.5909 40.3182L18.7727 40.6364C19.0758 40.7159 19.4129 40.8258 19.7841 40.9659C20.1591 41.1061 20.517 41.2973 20.858 41.5398C21.2027 41.7784 21.4867 42.0852 21.7102 42.4602C21.9337 42.8352 22.0455 43.2955 22.0455 43.8409C22.0455 44.4697 21.8807 45.0379 21.5511 45.5455C21.2254 46.053 20.7481 46.4564 20.1193 46.7557C19.4943 47.0549 18.7348 47.2045 17.8409 47.2045C17.0076 47.2045 16.286 47.0701 15.6761 46.8011C15.0701 46.5322 14.5928 46.1572 14.2443 45.6761C13.8996 45.1951 13.7045 44.6364 13.6591 44H15.1136C15.1515 44.4394 15.2992 44.803 15.5568 45.0909C15.8182 45.375 16.1477 45.5871 16.5455 45.7273C16.947 45.8636 17.3788 45.9318 17.8409 45.9318C18.3788 45.9318 18.8617 45.8447 19.2898 45.6705C19.7178 45.4924 20.0568 45.2462 20.3068 44.9318C20.5568 44.6136 20.6818 44.2424 20.6818 43.8182C20.6818 43.4318 20.5739 43.1174 20.358 42.875C20.142 42.6326 19.858 42.4356 19.5057 42.2841C19.1534 42.1326 18.7727 42 18.3636 41.8864L16.9318 41.4773C16.0227 41.2159 15.303 40.8428 14.7727 40.358C14.2424 39.8731 13.9773 39.2386 13.9773 38.4545C13.9773 37.803 14.1534 37.2348 14.5057 36.75C14.8617 36.2614 15.339 35.8826 15.9375 35.6136C16.5398 35.3409 17.2121 35.2045 17.9545 35.2045C18.7045 35.2045 19.3712 35.339 19.9545 35.608C20.5379 35.8731 21 36.2367 21.3409 36.6989C21.6856 37.161 21.8674 37.6856 21.8864 38.2727H20.5227ZM24.3622 47V35.3636H28.294C29.2069 35.3636 29.9531 35.5284 30.5327 35.858C31.116 36.1837 31.5478 36.625 31.8281 37.1818C32.1084 37.7386 32.2486 38.3598 32.2486 39.0455C32.2486 39.7311 32.1084 40.3542 31.8281 40.9148C31.5516 41.4754 31.1236 41.9223 30.544 42.2557C29.9645 42.5852 29.2221 42.75 28.3168 42.75H25.4986V41.5H28.2713C28.8963 41.5 29.3982 41.392 29.777 41.1761C30.1558 40.9602 30.4304 40.6686 30.6009 40.3011C30.7751 39.9299 30.8622 39.5114 30.8622 39.0455C30.8622 38.5795 30.7751 38.1629 30.6009 37.7955C30.4304 37.428 30.1539 37.1402 29.7713 36.9318C29.3887 36.7197 28.8812 36.6136 28.2486 36.6136H25.7713V47H24.3622Z" fill="#005EFF"/>
<path d="M9.93608 35.3636V32.3636H6.93608V35.3636H9.93608ZM11.3452 35.3636H14.3452V32.3636H11.3452V35.3636ZM10.7827 45.1989L8.21019 43.6554L8.20743 43.66L10.7827 45.1989ZM9.20881 46.6705L10.6036 49.3265L10.6152 49.3204L9.20881 46.6705ZM4.43608 46.6705L3.02968 49.3204L3.04129 49.3265L4.43608 46.6705ZM2.85653 45.1989L0.277184 46.7308L0.282664 46.7401L0.28821 46.7493L2.85653 45.1989ZM2.29972 35.3636V32.3636H-0.700284V35.3636H2.29972ZM3.70881 35.3636H6.70881V32.3636H3.70881V35.3636ZM4.08381 44.4716L1.47085 45.9456L1.47632 45.9552L4.08381 44.4716ZM5.15199 45.5114L3.70789 48.1409L3.72068 48.1479L3.73354 48.1548L5.15199 45.5114ZM8.4929 45.5114L9.91135 48.1548L9.91967 48.1504L9.92795 48.1459L8.4929 45.5114ZM9.56108 44.4716L6.94813 42.9976L6.94395 43.0051L9.56108 44.4716ZM9.93608 38.3636H11.3452V32.3636H9.93608V38.3636ZM8.34517 35.3636V43.0682H14.3452V35.3636H8.34517ZM8.34517 43.0682C8.34517 43.3712 8.28017 43.5387 8.21019 43.6554L13.3551 46.7424C14.0352 45.609 14.3452 44.3561 14.3452 43.0682H8.34517ZM8.20743 43.66C8.13438 43.7822 8.02733 43.9012 7.80242 44.0205L10.6152 49.3204C11.7463 48.72 12.6885 47.8579 13.3579 46.7377L8.20743 43.66ZM7.81401 44.0144C7.64152 44.105 7.34226 44.2045 6.82244 44.2045V50.2045C8.12838 50.2045 9.42004 49.948 10.6036 49.3265L7.81401 44.0144ZM6.82244 44.2045C6.30262 44.2045 6.00337 44.105 5.83087 44.0144L3.04129 49.3265C4.22485 49.948 5.5165 50.2045 6.82244 50.2045V44.2045ZM5.84246 44.0205C5.61522 43.8999 5.50276 43.7775 5.42486 43.6485L0.28821 46.7493C0.960311 47.8626 1.90088 48.7213 3.0297 49.3204L5.84246 44.0205ZM5.43588 43.6669C5.3656 43.5486 5.29972 43.3769 5.29972 43.0682H-0.700284C-0.700284 44.3504 -0.394955 45.5992 0.277184 46.7308L5.43588 43.6669ZM5.29972 43.0682V35.3636H-0.700284V43.0682H5.29972ZM2.29972 38.3636H3.70881V32.3636H2.29972V38.3636ZM0.708807 35.3636V42.9545H6.70881V35.3636H0.708807ZM0.708807 42.9545C0.708807 43.9777 0.93854 45.0019 1.47087 45.9456L6.69674 42.9976C6.70187 43.0067 6.7063 43.0161 6.70976 43.0248C6.71319 43.0335 6.71465 43.039 6.7149 43.04C6.71562 43.043 6.70881 43.0178 6.70881 42.9545H0.708807ZM1.47632 45.9552C2.01277 46.898 2.78133 47.6321 3.70789 48.1409L6.59609 42.8818C6.58737 42.877 6.60392 42.8851 6.63089 42.9114C6.6585 42.9382 6.67927 42.9669 6.6913 42.988L1.47632 45.9552ZM3.73354 48.1548C4.72329 48.6859 5.78983 48.8864 6.82244 48.8864V42.8864C6.5596 42.8864 6.5125 42.8368 6.57044 42.8679L3.73354 48.1548ZM6.82244 48.8864C7.85505 48.8864 8.92159 48.6859 9.91135 48.1548L7.07444 42.8679C7.13238 42.8368 7.08529 42.8864 6.82244 42.8864V48.8864ZM9.92795 48.1459C10.8623 47.6369 11.6408 46.8972 12.1782 45.9381L6.94395 43.0051C6.95998 42.9765 6.98521 42.9421 7.01683 42.9114C7.04765 42.8814 7.06678 42.872 7.05784 42.8769L9.92795 48.1459ZM12.174 45.9456C12.7063 45.0019 12.9361 43.9777 12.9361 42.9545H6.93608C6.93608 43.0178 6.92926 43.043 6.92999 43.04C6.93024 43.039 6.93169 43.0335 6.93513 43.0248C6.93858 43.0161 6.94302 43.0067 6.94814 42.9976L12.174 45.9456ZM12.9361 42.9545V35.3636H6.93608V42.9545H12.9361ZM20.5227 38.2727L17.5435 38.6255L17.857 41.2727H20.5227V38.2727ZM19.6932 36.9318L18.0472 39.44L18.0472 39.44L19.6932 36.9318ZM16.5568 36.7045L15.3685 33.9499L15.3586 33.9542L16.5568 36.7045ZM15.6591 37.392L13.2479 35.6071L13.2403 35.6173L13.2329 35.6275L15.6591 37.392ZM15.5625 39.1875L13.0598 40.8418L13.0761 40.8664L13.0929 40.8907L15.5625 39.1875ZM16.142 39.7386L14.5447 42.278L14.5595 42.2873L14.5744 42.2964L16.142 39.7386ZM16.8807 40.0966L15.8455 42.9123L15.8638 42.9191L15.8822 42.9256L16.8807 40.0966ZM17.5909 40.3182L18.3708 37.4213L18.3626 37.4191L18.3544 37.417L17.5909 40.3182ZM18.7727 40.6364L17.9928 43.5332L18.0019 43.5357L18.011 43.5381L18.7727 40.6364ZM19.7841 40.9659L18.7244 43.7726L18.7338 43.7761L19.7841 40.9659ZM20.858 41.5398L19.1194 43.9846L19.1348 43.9956L19.1503 44.0063L20.858 41.5398ZM21.7102 42.4602L24.2873 40.9244L24.2873 40.9244L21.7102 42.4602ZM21.5511 45.5455L19.0349 43.9118L19.0306 43.9184L19.0264 43.9251L21.5511 45.5455ZM20.1193 46.7557L18.8301 44.0468L18.8238 44.0498L20.1193 46.7557ZM15.6761 46.8011L14.4593 49.5433L14.4656 49.5461L15.6761 46.8011ZM14.2443 45.6761L11.8057 47.4235L11.8102 47.4298L11.8148 47.4361L14.2443 45.6761ZM13.6591 44V41H10.4372L10.6667 44.2137L13.6591 44ZM15.1136 44L18.1026 43.7423L17.8661 41H15.1136V44ZM15.5568 45.0909L13.3211 47.0913L13.335 47.1068L13.349 47.1221L15.5568 45.0909ZM16.5455 45.7273L15.5484 48.5567L15.5645 48.5624L15.5807 48.5679L16.5455 45.7273ZM19.2898 45.6705L20.4209 48.449L20.4314 48.4448L20.4419 48.4404L19.2898 45.6705ZM20.3068 44.9318L22.6549 46.799L22.6604 46.7922L22.6658 46.7853L20.3068 44.9318ZM20.358 42.875L22.5983 40.8797L22.5982 40.8797L20.358 42.875ZM19.5057 42.2841L18.3203 45.04L18.3203 45.04L19.5057 42.2841ZM18.3636 41.8864L17.5395 44.7709L17.5501 44.774L17.5607 44.7769L18.3636 41.8864ZM16.9318 41.4773L16.1029 44.3605L16.1077 44.3618L16.9318 41.4773ZM14.7727 40.358L12.7484 42.572L12.7484 42.572L14.7727 40.358ZM14.5057 36.75L12.0811 34.9832L12.0787 34.9866L14.5057 36.75ZM15.9375 35.6136L17.1672 38.3501L17.175 38.3465L15.9375 35.6136ZM19.9545 35.608L18.6985 38.3323L18.7058 38.3357L18.7131 38.3391L19.9545 35.608ZM21.3409 36.6989L18.9267 38.4798L18.9314 38.4862L18.9362 38.4926L21.3409 36.6989ZM21.8864 38.2727V41.2727H24.9847L24.8848 38.176L21.8864 38.2727ZM23.5019 37.9199C23.3295 36.4638 22.5647 35.228 21.3392 34.4237L18.0472 39.44C17.9619 39.384 17.8279 39.2698 17.7129 39.084C17.598 38.8982 17.5556 38.7272 17.5435 38.6255L23.5019 37.9199ZM21.3392 34.4237C20.2691 33.7214 19.0717 33.4545 17.9091 33.4545V39.4545C18.0365 39.4545 18.0971 39.469 18.1082 39.472C18.1155 39.4739 18.0884 39.467 18.0472 39.44L21.3392 34.4237ZM17.9091 33.4545C17.0746 33.4545 16.2043 33.5894 15.3685 33.9499L17.7451 39.4592C17.6821 39.4864 17.7133 39.4545 17.9091 39.4545V33.4545ZM15.3586 33.9542C14.5674 34.2989 13.8209 34.833 13.2479 35.6071L18.0703 39.177C18.005 39.2652 17.9339 39.3339 17.8695 39.3832C17.8068 39.4312 17.763 39.4514 17.755 39.4549L15.3586 33.9542ZM13.2329 35.6275C12.6363 36.4478 12.3409 37.401 12.3409 38.3864H18.3409C18.3409 38.4904 18.3254 38.6247 18.2777 38.7737C18.2298 38.9235 18.1604 39.0533 18.0853 39.1566L13.2329 35.6275ZM12.3409 38.3864C12.3409 39.1891 12.5385 40.0531 13.0598 40.8418L18.0652 37.5332C18.291 37.8749 18.3409 38.2048 18.3409 38.3864H12.3409ZM13.0929 40.8907C13.4846 41.4587 13.9793 41.9224 14.5447 42.278L17.7394 37.1993C17.8351 37.2594 17.9434 37.3557 18.0321 37.4843L13.0929 40.8907ZM14.5744 42.2964C14.9771 42.5433 15.4017 42.7492 15.8455 42.9123L17.9159 37.2809C17.8446 37.2546 17.7766 37.2218 17.7097 37.1808L14.5744 42.2964ZM15.8822 42.9256C16.2008 43.038 16.5171 43.1377 16.8274 43.2194L18.3544 37.417C18.2329 37.385 18.0758 37.337 17.8791 37.2676L15.8822 42.9256ZM16.811 43.215L17.9928 43.5332L19.5526 37.7395L18.3708 37.4213L16.811 43.215ZM18.011 43.5381C18.1908 43.5852 18.4265 43.66 18.7244 43.7725L20.8437 38.1593C20.3993 37.9915 19.9607 37.8466 19.5344 37.7347L18.011 43.5381ZM18.7338 43.7761C18.8537 43.8209 18.9815 43.8866 19.1194 43.9846L22.5965 39.0949C22.0526 38.7081 21.4644 38.3912 20.8343 38.1558L18.7338 43.7761ZM19.1503 44.0063C19.1475 44.0044 19.1436 44.0015 19.1393 43.9977C19.1349 43.9939 19.1312 43.9902 19.1283 43.9871C19.1254 43.984 19.1243 43.9824 19.1248 43.9832C19.1254 43.984 19.1284 43.988 19.1332 43.9961L24.2873 40.9244C23.8532 40.1961 23.278 39.5664 22.5656 39.0732L19.1503 44.0063ZM19.1332 43.996C19.079 43.9051 19.0552 43.8311 19.0463 43.7945C19.0382 43.761 19.0455 43.7715 19.0455 43.8409H25.0455C25.0455 42.8884 24.8488 41.8666 24.2873 40.9244L19.1332 43.996ZM19.0455 43.8409C19.0455 43.8668 19.0438 43.8834 19.0426 43.892C19.0414 43.9005 19.0404 43.9037 19.0406 43.9031C19.0406 43.9029 19.0408 43.9025 19.041 43.9018C19.0411 43.9015 19.0412 43.9013 19.0413 43.9011C19.0414 43.9009 19.0414 43.9008 19.0414 43.9008C19.0414 43.9008 19.0411 43.9016 19.0402 43.9032C19.0392 43.9049 19.0376 43.9077 19.0349 43.9118L24.0673 47.1791C24.7254 46.1655 25.0455 45.0257 25.0455 43.8409H19.0455ZM19.0264 43.9251C19.0308 43.9182 19.0308 43.9218 19.0123 43.9375C18.9916 43.955 18.9379 43.9955 18.8302 44.0468L21.4085 49.4646C22.4629 48.9627 23.4035 48.2135 24.0759 47.1658L19.0264 43.9251ZM18.8238 44.0498C18.7028 44.1077 18.4118 44.2045 17.8409 44.2045V50.2045C19.0579 50.2045 20.2858 50.0021 21.4148 49.4615L18.8238 44.0498ZM17.8409 44.2045C17.3233 44.2045 17.0323 44.1204 16.8866 44.0562L14.4656 49.5461C15.5396 50.0197 16.6918 50.2045 17.8409 50.2045V44.2045ZM16.893 44.059C16.7132 43.9792 16.6769 43.9203 16.6738 43.9162L11.8148 47.4361C12.5088 48.3941 13.427 49.0852 14.4593 49.5433L16.893 44.059ZM16.6829 43.9288C16.6773 43.921 16.675 43.9164 16.6718 43.9074C16.6682 43.8969 16.6568 43.8606 16.6515 43.7863L10.6667 44.2137C10.7484 45.3578 11.1132 46.457 11.8057 47.4235L16.6829 43.9288ZM13.6591 47H15.1136V41H13.6591V47ZM12.1247 44.2577C12.2101 45.2484 12.5704 46.2523 13.3211 47.0913L17.7925 43.0905C17.8974 43.2078 17.9784 43.3407 18.0322 43.4731C18.0845 43.6017 18.0988 43.6992 18.1026 43.7423L12.1247 44.2577ZM13.349 47.1221C13.9726 47.7999 14.7316 48.2689 15.5484 48.5567L17.5425 42.8978C17.5472 42.8995 17.578 42.911 17.6237 42.9405C17.6705 42.9706 17.7197 43.0109 17.7646 43.0597L13.349 47.1221ZM15.5807 48.5679C16.3196 48.8189 17.0801 48.9318 17.8409 48.9318V42.9318C17.6775 42.9318 17.5744 42.9084 17.5102 42.8866L15.5807 48.5679ZM17.8409 48.9318C18.7039 48.9318 19.5798 48.7914 20.4209 48.449L18.1587 42.8919C18.1437 42.898 18.0537 42.9318 17.8409 42.9318V48.9318ZM20.4419 48.4404C21.2656 48.0978 22.0433 47.5682 22.6549 46.799L17.9587 43.0646C18.0097 43.0005 18.0616 42.9543 18.1022 42.9249C18.141 42.8967 18.158 42.892 18.1377 42.9005L20.4419 48.4404ZM22.6658 46.7853C23.3522 45.9117 23.6818 44.8796 23.6818 43.8182H17.6818C17.6818 43.7318 17.6953 43.6049 17.7449 43.4574C17.7952 43.3082 17.8687 43.1792 17.9479 43.0784L22.6658 46.7853ZM23.6818 43.8182C23.6818 42.8436 23.3935 41.7726 22.5983 40.8797L18.1177 44.8703C17.9544 44.6869 17.8356 44.477 17.7635 44.2669C17.6939 44.0643 17.6818 43.9038 17.6818 43.8182H23.6818ZM22.5982 40.8797C22.0424 40.2556 21.374 39.822 20.691 39.5282L18.3203 45.04C18.3419 45.0493 18.2417 45.0096 18.1177 44.8703L22.5982 40.8797ZM20.691 39.5282C20.2021 39.3179 19.6924 39.1419 19.1666 38.9958L17.5607 44.7769C17.8531 44.8581 18.1047 44.9472 18.3203 45.04L20.691 39.5282ZM19.1878 39.0018L17.756 38.5927L16.1077 44.3618L17.5395 44.7709L19.1878 39.0018ZM17.7607 38.5941C17.1613 38.4217 16.8954 38.2338 16.797 38.1439L12.7484 42.572C13.7107 43.4518 14.8841 44.0101 16.1029 44.3605L17.7607 38.5941ZM16.797 38.1439C16.814 38.1594 16.8409 38.1873 16.8701 38.2284C16.8996 38.2699 16.9249 38.3156 16.9441 38.3617C16.9847 38.4587 16.9773 38.5048 16.9773 38.4545H10.9773C10.9773 39.9951 11.5358 41.4634 12.7484 42.572L16.797 38.1439ZM16.9773 38.4545C16.9773 38.427 16.9791 38.4129 16.9795 38.4103C16.9798 38.408 16.979 38.4146 16.9748 38.4281C16.9706 38.4417 16.9643 38.4579 16.9559 38.4748C16.9474 38.4916 16.939 38.5048 16.9327 38.5134L12.0787 34.9866C11.3212 36.0292 10.9773 37.2277 10.9773 38.4545H16.9773ZM16.9303 38.5167C16.9532 38.4853 17.0027 38.4239 17.1672 38.35L14.7078 32.8772C13.6753 33.3412 12.7703 34.0375 12.0811 34.9833L16.9303 38.5167ZM17.175 38.3465C17.3432 38.2703 17.5863 38.2045 17.9545 38.2045V32.2045C16.8379 32.2045 15.7363 32.4115 14.7 32.8808L17.175 38.3465ZM17.9545 38.2045C18.343 38.2045 18.5696 38.2729 18.6985 38.3323L21.2106 32.8836C20.1728 32.4051 19.0661 32.2045 17.9545 32.2045V38.2045ZM18.7131 38.3391C18.886 38.4176 18.9233 38.4752 18.9267 38.4798L23.7551 34.9179C23.0767 33.9983 22.1898 33.3286 21.196 32.8769L18.7131 38.3391ZM18.9362 38.4926C18.9316 38.4864 18.9149 38.4609 18.9012 38.4213C18.8877 38.3822 18.8876 38.3601 18.8879 38.3695L24.8848 38.176C24.8465 36.9882 24.4644 35.8688 23.7456 34.9052L18.9362 38.4926ZM21.8864 35.2727H20.5227V41.2727H21.8864V35.2727ZM24.3622 47H21.3622V50H24.3622V47ZM24.3622 35.3636V32.3636H21.3622V35.3636H24.3622ZM30.5327 35.858L29.0498 38.4658L29.0598 38.4716L29.07 38.4772L30.5327 35.858ZM31.8281 37.1818L29.1485 38.5307L29.1485 38.5307L31.8281 37.1818ZM31.8281 40.9148L29.1448 39.5731L29.1412 39.5804L29.1376 39.5877L31.8281 40.9148ZM30.544 42.2557L32.0269 44.8636L32.0334 44.8599L32.0398 44.8562L30.544 42.2557ZM25.4986 42.75H22.4986V45.75H25.4986V42.75ZM25.4986 41.5V38.5H22.4986V41.5H25.4986ZM29.777 41.1761L28.2914 38.5698L28.2914 38.5698L29.777 41.1761ZM30.6009 40.3011L27.8851 39.0264L27.8794 39.0386L30.6009 40.3011ZM30.6009 37.7955L27.8794 39.058L27.8848 39.0695L27.8902 39.0809L30.6009 37.7955ZM29.7713 36.9318L28.3166 39.5555L28.3266 39.561L28.3366 39.5665L29.7713 36.9318ZM25.7713 36.6136V33.6136H22.7713V36.6136H25.7713ZM25.7713 47V50H28.7713V47H25.7713ZM27.3622 47V35.3636H21.3622V47H27.3622ZM24.3622 38.3636H28.294V32.3636H24.3622V38.3636ZM28.294 38.3636C28.8706 38.3636 29.0588 38.4709 29.0498 38.4658L32.0156 33.2501C30.8475 32.5859 29.5432 32.3636 28.294 32.3636V38.3636ZM29.07 38.4772C29.1015 38.4948 29.1216 38.5087 29.1332 38.5175C29.1446 38.5261 29.1494 38.531 29.1498 38.5314C29.1502 38.5318 29.149 38.5305 29.1473 38.5283C29.1458 38.526 29.1462 38.5263 29.1485 38.5307L34.5078 35.8329C33.9382 34.7015 33.0627 33.8347 31.9954 33.2387L29.07 38.4772ZM29.1485 38.5307C29.1978 38.6286 29.2486 38.7808 29.2486 39.0455H35.2486C35.2486 37.9389 35.0191 36.8486 34.5078 35.8329L29.1485 38.5307ZM29.2486 39.0455C29.2486 39.3098 29.1979 39.4671 29.1448 39.5731L34.5114 42.2564C35.019 41.2412 35.2486 40.1523 35.2486 39.0455H29.2486ZM29.1376 39.5877C29.1346 39.5938 29.1332 39.5955 29.1338 39.5948C29.1343 39.594 29.1345 39.594 29.133 39.5955C29.1317 39.5969 29.1103 39.6195 29.0483 39.6551L32.0398 44.8562C33.0974 44.2479 33.9604 43.3737 34.5186 42.2418L29.1376 39.5877ZM29.0611 39.6478C29.0669 39.6446 28.8807 39.75 28.3168 39.75V45.75C29.5635 45.75 30.8621 45.5259 32.0269 44.8636L29.0611 39.6478ZM28.3168 39.75H25.4986V45.75H28.3168V39.75ZM28.4986 42.75V41.5H22.4986V42.75H28.4986ZM25.4986 44.5H28.2713V38.5H25.4986V44.5ZM28.2713 44.5C29.2048 44.5 30.2768 44.3444 31.2626 43.7825L28.2914 38.5698C28.4109 38.5017 28.4884 38.4855 28.4856 38.4861C28.4848 38.4863 28.4675 38.4899 28.4309 38.4934C28.3943 38.4969 28.3417 38.5 28.2713 38.5V44.5ZM31.2626 43.7825C32.1392 43.2828 32.8691 42.5405 33.3223 41.5636L27.8794 39.0386C27.928 38.9339 27.9972 38.8299 28.0829 38.7389C28.167 38.6495 28.2446 38.5964 28.2914 38.5698L31.2626 43.7825ZM33.3166 41.5759C33.702 40.7547 33.8622 39.8919 33.8622 39.0455H27.8622C27.8622 39.0912 27.858 39.1063 27.8598 39.0975C27.8607 39.0932 27.8629 39.0842 27.8671 39.0713C27.8714 39.0584 27.8773 39.0431 27.8851 39.0264L33.3166 41.5759ZM33.8622 39.0455C33.8622 38.1997 33.7022 37.3339 33.3115 36.51L27.8902 39.0809C27.881 39.0616 27.8742 39.044 27.8691 39.0289C27.8642 39.014 27.8616 39.0032 27.8604 38.9975C27.858 38.986 27.8622 38.9996 27.8622 39.0455H33.8622ZM33.3223 36.5329C32.8602 35.537 32.1083 34.7885 31.206 34.2971L28.3366 39.5665C28.2824 39.537 28.1953 39.4793 28.102 39.3822C28.0071 39.2834 27.9317 39.1706 27.8794 39.058L33.3223 36.5329ZM31.226 34.3081C30.2436 33.7634 29.1777 33.6136 28.2486 33.6136V39.6136C28.3234 39.6136 28.3805 39.6168 28.4217 39.6206C28.4629 39.6245 28.4848 39.6287 28.4901 39.6298C28.5024 39.6323 28.4319 39.6194 28.3166 39.5555L31.226 34.3081ZM28.2486 33.6136H25.7713V39.6136H28.2486V33.6136ZM22.7713 36.6136V47H28.7713V36.6136H22.7713ZM25.7713 44H24.3622V50H25.7713V44Z" fill="white"/>
<path d="M57.25 28V8H58.2734V28H57.25ZM61.6484 14C61.5599 13.1094 61.1667 12.401 60.4688 11.875C59.7708 11.349 58.8932 11.0859 57.8359 11.0859C57.0911 11.0859 56.4349 11.2135 55.8672 11.4687C55.3047 11.724 54.862 12.0781 54.5391 12.5312C54.2214 12.9792 54.0625 13.4896 54.0625 14.0625C54.0625 14.4844 54.1536 14.8542 54.3359 15.1719C54.5182 15.4896 54.763 15.763 55.0703 15.9922C55.3828 16.2161 55.7266 16.4089 56.1016 16.5703C56.4818 16.7318 56.8646 16.8672 57.25 16.9766L58.9375 17.4609C59.4479 17.6016 59.9583 17.7812 60.4688 18C60.9792 18.2187 61.4453 18.4948 61.8672 18.8281C62.2943 19.1562 62.6354 19.5599 62.8906 20.0391C63.151 20.513 63.2813 21.0833 63.2813 21.75C63.2813 22.6042 63.0599 23.3724 62.6172 24.0547C62.1745 24.737 61.5391 25.2786 60.7109 25.6797C59.8828 26.0755 58.8906 26.2734 57.7344 26.2734C56.6458 26.2734 55.7005 26.0937 54.8984 25.7344C54.0964 25.3698 53.4661 24.8672 53.0078 24.2266C52.5495 23.5859 52.2917 22.8437 52.2344 22H53.7344C53.7865 22.6302 53.9948 23.1641 54.3594 23.6016C54.724 24.0391 55.1979 24.3724 55.7813 24.6016C56.3646 24.8255 57.0156 24.9375 57.7344 24.9375C58.5313 24.9375 59.2396 24.8047 59.8594 24.5391C60.4844 24.2682 60.974 23.8932 61.3281 23.4141C61.6875 22.9297 61.8672 22.3672 61.8672 21.7266C61.8672 21.1849 61.7266 20.7318 61.4453 20.3672C61.1641 19.9974 60.7708 19.6875 60.2656 19.4375C59.7656 19.1875 59.1849 18.9661 58.5234 18.7734L56.6094 18.2109C55.3542 17.8359 54.3802 17.3177 53.6875 16.6562C52.9948 15.9948 52.6484 15.151 52.6484 14.125C52.6484 13.2656 52.8776 12.5104 53.3359 11.8594C53.7995 11.2031 54.4245 10.6927 55.2109 10.3281C56.0026 9.95833 56.8906 9.77344 57.875 9.77344C58.8698 9.77344 59.75 9.95573 60.5156 10.3203C61.2813 10.6849 61.888 11.1875 62.3359 11.8281C62.7891 12.4635 63.0313 13.1875 63.0625 14H61.6484ZM71.4219 26.2187C70.2969 26.2187 69.3359 25.8958 68.5391 25.25C67.7474 24.599 67.138 23.6589 66.7109 22.4297C66.2891 21.2005 66.0781 19.724 66.0781 18C66.0781 16.2812 66.2891 14.8099 66.7109 13.5859C67.138 12.3568 67.75 11.4167 68.5469 10.7656C69.349 10.1094 70.3073 9.78125 71.4219 9.78125C72.5365 9.78125 73.4922 10.1094 74.2891 10.7656C75.0911 11.4167 75.7031 12.3568 76.125 13.5859C76.5521 14.8099 76.7656 16.2812 76.7656 18C76.7656 19.724 76.5521 21.2005 76.125 22.4297C75.7031 23.6589 75.0938 24.599 74.2969 25.25C73.5052 25.8958 72.5469 26.2187 71.4219 26.2187ZM71.4219 24.9062C72.6563 24.9062 73.6198 24.3047 74.3125 23.1016C75.0052 21.8932 75.3516 20.1927 75.3516 18C75.3516 16.5417 75.1927 15.2969 74.875 14.2656C74.5625 13.2292 74.112 12.4375 73.5234 11.8906C72.9401 11.3437 72.2396 11.0703 71.4219 11.0703C70.1979 11.0703 69.237 11.6797 68.5391 12.8984C67.8411 14.112 67.4922 15.8125 67.4922 18C67.4922 19.4583 67.6484 20.7031 67.9609 21.7344C68.2786 22.7656 68.7292 23.5521 69.3125 24.0938C69.901 24.6354 70.6042 24.9062 71.4219 24.9062Z" fill="#005EFF"/>
<path d="M57.25 28H54.25V31H57.25V28ZM57.25 8V5H54.25V8H57.25ZM58.2734 8H61.2734V5H58.2734V8ZM58.2734 28V31H61.2734V28H58.2734ZM61.6484 14L58.6632 14.2968L58.9319 17H61.6484V14ZM60.4688 11.875L62.2745 9.4793L62.2745 9.4793L60.4688 11.875ZM55.8672 11.4688L54.6371 8.7325L54.6277 8.73678L55.8672 11.4688ZM54.5391 12.5312L52.096 10.7902L52.0921 10.7956L54.5391 12.5312ZM54.3359 15.1719L51.7338 16.6649L51.7338 16.6649L54.3359 15.1719ZM55.0703 15.9922L53.2768 18.3971L53.2996 18.4141L53.3228 18.4306L55.0703 15.9922ZM56.1016 16.5703L54.9152 19.3258L54.9221 19.3287L54.9289 19.3316L56.1016 16.5703ZM57.25 16.9766L58.0777 14.093L58.069 14.0905L57.25 16.9766ZM58.9375 17.4609L58.1098 20.3445L58.1252 20.3489L58.1407 20.3532L58.9375 17.4609ZM61.8672 18.8281L60.0073 21.182L60.0233 21.1947L60.0395 21.2071L61.8672 18.8281ZM62.8906 20.0391L60.2428 21.4493L60.252 21.4666L60.2614 21.4837L62.8906 20.0391ZM62.6172 24.0547L60.1005 22.4217L60.1005 22.4218L62.6172 24.0547ZM60.7109 25.6797L62.0047 28.3864L62.0116 28.3831L62.0185 28.3797L60.7109 25.6797ZM54.8984 25.7344L53.657 28.4655L53.6644 28.4688L53.6718 28.4721L54.8984 25.7344ZM53.0078 24.2266L55.4477 22.481L53.0078 24.2266ZM52.2344 22V19H49.0238L49.2413 22.2032L52.2344 22ZM53.7344 22L56.7242 21.7529L56.4967 19H53.7344V22ZM54.3594 23.6016L52.0547 25.5221L54.3594 23.6016ZM55.7812 24.6016L54.6843 27.3938L54.6951 27.3981L54.706 27.4022L55.7812 24.6016ZM59.8594 24.5391L61.0411 27.2965L61.0522 27.2917L59.8594 24.5391ZM61.3281 23.4141L58.9188 21.6265L58.9156 21.6309L61.3281 23.4141ZM61.4453 20.3672L59.0575 22.1833L59.0637 22.1915L59.07 22.1996L61.4453 20.3672ZM60.2656 19.4375L58.924 22.1208L58.9351 22.1263L60.2656 19.4375ZM58.5234 18.7734L57.6776 21.6517L57.6843 21.6537L58.5234 18.7734ZM56.6094 18.2109L55.7506 21.0854L55.7635 21.0892L56.6094 18.2109ZM53.6875 16.6562L55.7593 14.4866L55.7593 14.4866L53.6875 16.6562ZM53.3359 11.8594L50.8856 10.1286L50.8829 10.1324L53.3359 11.8594ZM55.2109 10.3281L56.4727 13.0499L56.4806 13.0462L55.2109 10.3281ZM60.5156 10.3203L59.2258 13.0289L59.2258 13.0289L60.5156 10.3203ZM62.3359 11.8281L59.8773 13.5472L59.8853 13.5586L59.8934 13.5699L62.3359 11.8281ZM63.0625 14V17H66.1801L66.0603 13.8847L63.0625 14ZM60.25 28V8H54.25V28H60.25ZM57.25 11H58.2734V5H57.25V11ZM55.2734 8V28H61.2734V8H55.2734ZM58.2734 25H57.25V31H58.2734V25ZM64.6337 13.7032C64.4646 12.0017 63.6595 10.5232 62.2745 9.4793L58.663 14.2707C58.6866 14.2884 58.692 14.2959 58.6873 14.2906C58.6852 14.2882 58.6816 14.2839 58.6772 14.2776C58.6728 14.2713 58.6683 14.2643 58.6642 14.2569C58.6601 14.2495 58.657 14.243 58.6549 14.2379C58.6528 14.233 58.6521 14.2306 58.6525 14.2317C58.653 14.2333 58.6588 14.2532 58.6632 14.2968L64.6337 13.7032ZM62.2745 9.4793C60.9544 8.48429 59.4045 8.08594 57.8359 8.08594V14.0859C58.382 14.0859 58.5873 14.2136 58.663 14.2707L62.2745 9.4793ZM57.8359 8.08594C56.7491 8.08594 55.66 8.2727 54.6371 8.73252L57.0972 14.205C57.2098 14.1544 57.4332 14.0859 57.8359 14.0859V8.08594ZM54.6277 8.73678C53.638 9.1858 52.7586 9.86034 52.096 10.7902L56.9822 14.2723C56.9796 14.2759 56.9784 14.2755 56.9874 14.2684C56.9977 14.2601 57.0322 14.2345 57.1067 14.2007L54.6277 8.73678ZM52.0921 10.7956C51.3984 11.7736 51.0625 12.8963 51.0625 14.0625H57.0625C57.0625 14.0567 57.0627 14.0881 57.0461 14.1415C57.0291 14.1961 57.0049 14.2403 56.986 14.2669L52.0921 10.7956ZM51.0625 14.0625C51.0625 14.9277 51.2535 15.8277 51.7338 16.6649L56.938 13.6789C56.9915 13.7721 57.025 13.8625 57.0437 13.9383C57.0618 14.012 57.0625 14.0571 57.0625 14.0625H51.0625ZM51.7338 16.6649C52.1299 17.3552 52.6561 17.9341 53.2768 18.3971L56.8638 13.5873C56.8634 13.587 56.8746 13.5955 56.8914 13.6142C56.9085 13.6333 56.9247 13.6557 56.938 13.6789L51.7338 16.6649ZM53.3228 18.4306C53.8208 18.7876 54.3545 19.0843 54.9152 19.3258L57.2879 13.8149C57.0987 13.7334 56.9448 13.6447 56.8179 13.5537L53.3228 18.4306ZM54.9289 19.3316C55.4207 19.5405 55.9216 19.718 56.431 19.8626L58.069 14.0905C57.8076 14.0163 57.5428 13.923 57.2742 13.809L54.9289 19.3316ZM56.4223 19.8601L58.1098 20.3445L59.7652 14.5774L58.0777 14.093L56.4223 19.8601ZM58.1407 20.3532C58.5137 20.4559 58.8956 20.5897 59.287 20.7574L61.6505 15.2426C61.0211 14.9728 60.3822 14.7472 59.7343 14.5687L58.1407 20.3532ZM59.287 20.7574C59.5626 20.8756 59.7995 21.0178 60.0073 21.182L63.7271 16.4742C63.0912 15.9718 62.3957 15.5619 61.6505 15.2426L59.287 20.7574ZM60.0395 21.2071C60.1244 21.2723 60.1871 21.3447 60.2428 21.4493L65.5385 18.6288C65.0838 17.7751 64.4641 17.0402 63.6949 16.4492L60.0395 21.2071ZM60.2614 21.4837C60.2282 21.4233 60.2813 21.4722 60.2813 21.75H66.2813C66.2813 20.6945 66.0739 19.6028 65.5199 18.5944L60.2614 21.4837ZM60.2813 21.75C60.2813 22.0552 60.2115 22.2507 60.1005 22.4217L65.1338 25.6876C65.9083 24.4941 66.2813 23.1531 66.2813 21.75H60.2813ZM60.1005 22.4218C59.9936 22.5866 59.8048 22.7852 59.4034 22.9796L62.0185 28.3797C63.2733 27.7721 64.3554 26.8873 65.1338 25.6876L60.1005 22.4218ZM59.4172 22.973C59.0839 23.1323 58.5559 23.2734 57.7344 23.2734V29.2734C59.2254 29.2734 60.6818 29.0187 62.0047 28.3864L59.4172 22.973ZM57.7344 23.2734C56.9705 23.2734 56.4609 23.1471 56.1251 22.9966L53.6718 28.4721C54.9402 29.0404 56.3211 29.2734 57.7344 29.2734V23.2734ZM56.1398 23.0033C55.7587 22.83 55.5648 22.6447 55.4477 22.481L50.568 25.9722C51.3675 27.0897 52.434 27.9095 53.657 28.4655L56.1398 23.0033ZM55.4477 22.481C55.3373 22.3266 55.2499 22.1276 55.2275 21.7968L49.2413 22.2032C49.3334 23.5599 49.7617 24.8452 50.568 25.9722L55.4477 22.481ZM52.2344 25H53.7344V19H52.2344V25ZM50.7446 22.2471C50.8416 23.4214 51.2518 24.5587 52.0547 25.5221L56.664 21.681C56.6755 21.6948 56.6878 21.7118 56.6993 21.7313C56.7107 21.7507 56.719 21.7684 56.7244 21.7824C56.736 21.8121 56.7288 21.8085 56.7242 21.7529L50.7446 22.2471ZM52.0547 25.5221C52.7738 26.385 53.6798 26.9992 54.6843 27.3938L56.8782 21.8093C56.7161 21.7456 56.6741 21.6931 56.664 21.681L52.0547 25.5221ZM54.706 27.4022C55.68 27.7762 56.7026 27.9375 57.7344 27.9375V21.9375C57.3287 21.9375 57.0492 21.8749 56.8565 21.8009L54.706 27.4022ZM57.7344 27.9375C58.8648 27.9375 59.9864 27.7485 61.0411 27.2965L58.6776 21.7816C58.4928 21.8609 58.1977 21.9375 57.7344 21.9375V27.9375ZM61.0522 27.2917C62.0915 26.8414 63.0297 26.1592 63.7407 25.1972L58.9156 21.6309C58.9114 21.6366 58.9006 21.6505 58.8711 21.6731C58.8399 21.697 58.7774 21.7384 58.6666 21.7864L61.0522 27.2917ZM63.7374 25.2016C64.505 24.167 64.8672 22.9684 64.8672 21.7266H58.8672C58.8672 21.7633 58.8626 21.7539 58.8747 21.716C58.8803 21.6986 58.8878 21.6803 58.8968 21.6627C58.9058 21.6453 58.914 21.6331 58.9188 21.6265L63.7374 25.2016ZM64.8672 21.7266C64.8672 20.6433 64.5753 19.513 63.8207 18.5348L59.07 22.1996C58.9858 22.0905 58.9288 21.9736 58.8965 21.8697C58.8659 21.7708 58.8672 21.7153 58.8672 21.7266H64.8672ZM63.8331 18.5511C63.218 17.7423 62.4292 17.1609 61.5962 16.7487L58.9351 22.1263C59.0241 22.1704 59.0683 22.2024 59.0825 22.2137C59.0954 22.2238 59.0817 22.2151 59.0575 22.1833L63.8331 18.5511ZM61.6073 16.7542C60.914 16.4076 60.159 16.1252 59.3626 15.8932L57.6843 21.6537C58.2108 21.8071 58.6173 21.9674 58.924 22.1208L61.6073 16.7542ZM59.3693 15.8952L57.4552 15.3327L55.7635 21.0892L57.6776 21.6517L59.3693 15.8952ZM57.4681 15.3365C56.5087 15.0499 56.0066 14.7227 55.7593 14.4866L51.6157 18.8259C52.7538 19.9127 54.1996 20.622 55.7506 21.0854L57.4681 15.3365ZM55.7593 14.4866C55.7015 14.4314 55.689 14.4016 55.6835 14.3881C55.6761 14.3702 55.6484 14.2959 55.6484 14.125H49.6484C49.6484 15.9056 50.2847 17.555 51.6157 18.8259L55.7593 14.4866ZM55.6484 14.125C55.6484 13.8322 55.7152 13.6912 55.789 13.5863L50.8829 10.1324C50.04 11.3297 49.6484 12.699 49.6484 14.125H55.6484ZM55.7863 13.5902C55.9234 13.3961 56.1235 13.2118 56.4727 13.0499L53.9492 7.60636C52.7255 8.17365 51.6756 9.01012 50.8856 10.1286L55.7863 13.5902ZM56.4806 13.0462C56.8271 12.8843 57.2736 12.7734 57.875 12.7734V6.77344C56.5076 6.77344 55.1781 7.03233 53.9413 7.61003L56.4806 13.0462ZM57.875 12.7734C58.5003 12.7734 58.9271 12.8866 59.2258 13.0289L61.8054 7.61173C60.5729 7.02482 59.2393 6.77344 57.875 6.77344V12.7734ZM59.2258 13.0289C59.5637 13.1898 59.7518 13.3676 59.8773 13.5472L64.7946 10.1091C64.0243 9.00736 62.9988 8.17999 61.8054 7.61173L59.2258 13.0289ZM59.8934 13.5699C59.9921 13.7083 60.055 13.8617 60.0647 14.1153L66.0603 13.8847C66.0075 12.5133 65.5861 11.2188 64.7785 10.0863L59.8934 13.5699ZM63.0625 11H61.6484V17H63.0625V11ZM68.5391 25.25L66.6335 27.5671L66.6418 27.5739L66.6502 27.5807L68.5391 25.25ZM66.7109 22.4297L63.8734 23.4036L63.8771 23.4143L66.7109 22.4297ZM66.7109 13.5859L63.8771 12.6013L63.8747 12.6083L66.7109 13.5859ZM68.5469 10.7656L70.4449 13.0888L70.4466 13.0875L68.5469 10.7656ZM74.2891 10.7656L72.3819 13.0814L72.3902 13.0882L72.3984 13.0949L74.2891 10.7656ZM76.125 13.5859L73.2875 14.5598L73.29 14.5671L73.2925 14.5743L76.125 13.5859ZM76.125 22.4297L73.2912 21.4451L73.2875 21.4558L76.125 22.4297ZM74.2969 25.25L76.1933 27.5746L76.1949 27.5732L74.2969 25.25ZM74.3125 23.1016L76.9124 24.5985L76.9152 24.5936L74.3125 23.1016ZM74.875 14.2656L72.0027 15.1316L72.0053 15.1403L72.008 15.1489L74.875 14.2656ZM73.5234 11.8906L71.4716 14.0793L71.4813 14.0883L73.5234 11.8906ZM68.5391 12.8984L71.1397 14.3941L71.1424 14.3892L68.5391 12.8984ZM67.9609 21.7344L65.0898 22.6044L65.0939 22.6177L67.9609 21.7344ZM69.3125 24.0938L67.2711 26.2922L67.2809 26.3012L69.3125 24.0938ZM71.4219 23.2188C70.9136 23.2188 70.6379 23.0894 70.428 22.9193L66.6502 27.5807C68.034 28.7022 69.6801 29.2188 71.4219 29.2188V23.2188ZM70.4446 22.9329C70.1797 22.7151 69.839 22.2919 69.5448 21.4451L63.8771 23.4143C64.437 25.0258 65.3151 26.4829 66.6335 27.5671L70.4446 22.9329ZM69.5485 21.4558C69.2628 20.6236 69.0781 19.4942 69.0781 18H63.0781C63.0781 19.9537 63.3153 21.7775 63.8734 23.4036L69.5485 21.4558ZM69.0781 18C69.0781 16.5116 69.2627 15.3889 69.5472 14.5635L63.8747 12.6083C63.3154 14.2308 63.0781 16.0509 63.0781 18H69.0781ZM69.5448 14.5706C69.8374 13.7283 70.1779 13.307 70.4449 13.0888L66.6488 8.4424C65.3221 9.52631 64.4386 10.9853 63.8771 12.6013L69.5448 14.5706ZM70.4466 13.0875C70.6708 12.9041 70.9437 12.7812 71.4219 12.7812V6.78125C69.6709 6.78125 68.0271 7.31468 66.6472 8.44375L70.4466 13.0875ZM71.4219 12.7812C71.9002 12.7812 72.1664 12.9039 72.3819 13.0814L76.1962 8.44983C74.818 7.31482 73.1727 6.78125 71.4219 6.78125V12.7812ZM72.3984 13.0949C72.6644 13.3108 73.0013 13.726 73.2875 14.5598L78.9625 12.612C78.4049 10.9875 77.5179 9.52252 76.1797 8.43636L72.3984 13.0949ZM73.2925 14.5743C73.5792 15.396 73.7656 16.5147 73.7656 18H79.7656C79.7656 16.0478 79.525 14.2238 78.9575 12.5976L73.2925 14.5743ZM73.7656 18C73.7656 19.4911 73.5791 20.6165 73.2912 21.4451L78.9588 23.4143C79.5251 21.7845 79.7656 19.9568 79.7656 18H73.7656ZM73.2875 21.4558C72.9997 22.2942 72.6626 22.7113 72.3988 22.9268L76.1949 27.5732C77.5249 26.4867 78.4065 25.0235 78.9625 23.4036L73.2875 21.4558ZM72.4005 22.9254C72.1993 23.0895 71.9303 23.2188 71.4219 23.2188V29.2188C73.1634 29.2188 74.8111 28.7022 76.1933 27.5746L72.4005 22.9254ZM71.4219 27.9062C73.8814 27.9062 75.7647 26.5918 76.9124 24.5985L71.7126 21.6047C71.5581 21.873 71.4623 21.9224 71.4816 21.9103C71.4887 21.9059 71.4994 21.9014 71.5049 21.8999C71.5087 21.8988 71.4851 21.9062 71.4219 21.9062V27.9062ZM76.9152 24.5936C77.9767 22.7419 78.3516 20.4433 78.3516 18H72.3516C72.3516 19.9421 72.0337 21.0446 71.7098 21.6095L76.9152 24.5936ZM78.3516 18C78.3516 16.3401 78.1727 14.7802 77.742 13.3824L72.008 15.1489C72.2127 15.8135 72.3516 16.7433 72.3516 18H78.3516ZM77.7473 13.3996C77.3326 12.0242 76.6567 10.7069 75.5655 9.69294L71.4813 14.0883C71.5672 14.1681 71.7924 14.4341 72.0027 15.1316L77.7473 13.3996ZM75.5753 9.70201C74.4221 8.62089 72.9826 8.07031 71.4219 8.07031V14.0703C71.4586 14.0703 71.4773 14.0733 71.4814 14.0741C71.4851 14.0747 71.48 14.0741 71.4697 14.07C71.4593 14.066 71.4517 14.0617 71.4487 14.0598C71.446 14.0581 71.4539 14.0626 71.4716 14.0792L75.5753 9.70201ZM71.4219 8.07031C68.9447 8.07031 67.0736 9.42056 65.9357 11.4076L71.1424 14.3892C71.3048 14.1056 71.4071 14.0499 71.3898 14.0609C71.3829 14.0653 71.3699 14.0713 71.3592 14.0743C71.35 14.0768 71.3669 14.0703 71.4219 14.0703V8.07031ZM65.9385 11.4028C64.8713 13.2584 64.4922 15.5565 64.4922 18H70.4922C70.4922 16.0685 70.811 14.9656 71.1397 14.3941L65.9385 11.4028ZM64.4922 18C64.4922 19.6564 64.6678 21.2114 65.0899 22.6044L70.832 20.8644C70.6291 20.1948 70.4922 19.2603 70.4922 18H64.4922ZM65.0939 22.6177C65.5137 23.9801 66.1886 25.2869 67.2711 26.2921L71.3539 21.8954C71.2698 21.8173 71.0436 21.5511 70.828 20.8511L65.0939 22.6177ZM67.2809 26.3012C68.4368 27.365 69.8701 27.9062 71.4219 27.9062V21.9062C71.3835 21.9062 71.3627 21.9031 71.3561 21.9019C71.3498 21.9008 71.3521 21.9008 71.3596 21.9036C71.3629 21.9049 71.366 21.9063 71.3687 21.9077C71.3714 21.909 71.3728 21.9099 71.3727 21.9098C71.3726 21.9098 71.3703 21.9083 71.3658 21.9048C71.3612 21.9013 71.3539 21.8954 71.3441 21.8863L67.2809 26.3012Z" fill="white"/>
</svg>
