<svg width="23" height="17" viewBox="0 0 23 17" fill="none" xmlns="http://www.w3.org/2000/svg">
<path d="M19.6893 2.01904C19.6893 2.01904 17.3968 0.225043 14.6893 0.019043L14.4453 0.507043C16.8933 1.10604 18.0163 1.96454 19.1893 3.01904C17.1668 1.98654 15.1698 1.01904 11.6893 1.01904C8.20883 1.01904 6.21183 1.98654 4.18933 3.01904C5.36233 1.96454 6.69833 1.01154 8.93333 0.507043L8.68933 0.019043C5.84883 0.287543 3.68933 2.01904 3.68933 2.01904C3.68933 2.01904 1.12883 5.73154 0.689331 13.019C3.27033 15.9955 7.18933 16.019 7.18933 16.019L8.00883 14.9265C6.61783 14.443 5.04683 13.5795 3.68933 12.019C5.30833 13.244 7.75183 14.519 11.6893 14.519C15.6268 14.519 18.0703 13.244 19.6893 12.019C18.3318 13.5795 16.7608 14.443 15.3698 14.9265L16.1893 16.019C16.1893 16.019 20.1083 15.9955 22.6893 13.019C22.2498 5.73154 19.6893 2.01904 19.6893 2.01904ZM8.43933 11.019C7.47283 11.019 6.68933 10.1235 6.68933 9.01904C6.68933 7.91454 7.47283 7.01904 8.43933 7.01904C9.40583 7.01904 10.1893 7.91454 10.1893 9.01904C10.1893 10.1235 9.40583 11.019 8.43933 11.019ZM14.9393 11.019C13.9728 11.019 13.1893 10.1235 13.1893 9.01904C13.1893 7.91454 13.9728 7.01904 14.9393 7.01904C15.9058 7.01904 16.6893 7.91454 16.6893 9.01904C16.6893 10.1235 15.9058 11.019 14.9393 11.019Z" fill="white"/>
</svg>
