<svg width="60" height="60" viewBox="0 0 60 60" fill="none" xmlns="http://www.w3.org/2000/svg">
<circle cx="30" cy="30" r="29.5" fill="white" stroke="#005EFF"/>
<circle cx="30" cy="30" r="29.5" fill="white" stroke="#005EFF"/>
<rect x="16.5" y="48.5" width="37" height="2" transform="rotate(-90 16.5 48.5)" fill="#005EFF" stroke="white"/>
<rect x="21.5" y="48.5" width="37" height="2" transform="rotate(-90 21.5 48.5)" fill="#005EFF" stroke="white"/>
<rect x="26.5" y="48.5" width="37" height="2" transform="rotate(-90 26.5 48.5)" fill="#005EFF" stroke="white"/>
<rect x="31.5" y="48.5" width="37" height="2" transform="rotate(-90 31.5 48.5)" fill="#005EFF" stroke="white"/>
<rect x="36.5" y="48.5" width="37" height="2" transform="rotate(-90 36.5 48.5)" fill="#005EFF" stroke="white"/>
<rect x="41.5" y="48.5" width="37" height="2" transform="rotate(-90 41.5 48.5)" fill="#005EFF" stroke="white"/>
<circle cx="17.5" cy="18.5" r="2.5" fill="#005EFF"/>
<circle cx="22.5" cy="28.5" r="2.5" fill="#005EFF"/>
<circle cx="32.5" cy="36.5" r="2.5" fill="#005EFF"/>
<circle cx="27.5" cy="44.5" r="2.5" fill="#005EFF"/>
<circle cx="37.5" cy="27.5" r="2.5" fill="#005EFF"/>
<circle cx="42.5" cy="38.5" r="2.5" fill="#005EFF"/>
</svg>
