<svg width="29" height="17" viewBox="0 0 29 17" fill="none" xmlns="http://www.w3.org/2000/svg">
<path d="M8.68933 0.019043C7.63876 0.019043 6.59847 0.225969 5.62786 0.628007C4.65726 1.03004 3.77535 1.61932 3.03248 2.36219C2.28961 3.10506 1.70033 3.98697 1.29829 4.95758C0.896257 5.92818 0.689331 6.96847 0.689331 8.01904C0.689331 9.06962 0.896257 10.1099 1.29829 11.0805C1.70033 12.0511 2.28961 12.933 3.03248 13.6759C3.77535 14.4188 4.65726 15.008 5.62786 15.4101C6.59847 15.8121 7.63876 16.019 8.68933 16.019C9.73991 16.019 10.7802 15.8121 11.7508 15.4101C12.7214 15.008 13.6033 14.4188 14.3462 13.6759C15.0891 12.933 15.6783 12.0511 16.0804 11.0805C16.4824 10.1099 16.6893 9.06962 16.6893 8.01904C16.6893 6.96847 16.4824 5.92818 16.0804 4.95758C15.6783 3.98697 15.0891 3.10506 14.3462 2.36219C13.6033 1.61932 12.7214 1.03004 11.7508 0.628007C10.7802 0.225969 9.73991 0.019043 8.68933 0.019043ZM21.3952 0.960219C20.9008 0.960219 20.4113 1.1428 19.9545 1.49754C19.4978 1.85228 19.0828 2.37223 18.7332 3.0277C18.3836 3.68317 18.1063 4.46133 17.9171 5.31775C17.7279 6.17416 17.6305 7.09206 17.6305 8.01904C17.6305 8.94602 17.7279 9.86392 17.9171 10.7203C18.1063 11.5768 18.3836 12.3549 18.7332 13.0104C19.0828 13.6659 19.4978 14.1858 19.9545 14.5405C20.4113 14.8953 20.9008 15.0779 21.3952 15.0779C21.8896 15.0779 22.3792 14.8953 22.8359 14.5405C23.2927 14.1858 23.7077 13.6659 24.0573 13.0104C24.4068 12.3549 24.6842 11.5768 24.8734 10.7203C25.0625 9.86392 25.1599 8.94602 25.1599 8.01904C25.1599 7.09206 25.0625 6.17416 24.8734 5.31775C24.6842 4.46133 24.4068 3.68317 24.0573 3.0277C23.7077 2.37223 23.2927 1.85228 22.8359 1.49754C22.3792 1.1428 21.8896 0.960219 21.3952 0.960219ZM27.5129 1.9014C27.1384 1.9014 26.7794 2.54593 26.5146 3.69321C26.2498 4.84049 26.1011 6.39654 26.1011 8.01904C26.1011 9.64154 26.2498 11.1976 26.5146 12.3449C26.7794 13.4922 27.1384 14.1367 27.5129 14.1367C27.8873 14.1367 28.2464 13.4922 28.5111 12.3449C28.7759 11.1976 28.9246 9.64154 28.9246 8.01904C28.9246 6.39654 28.7759 4.84049 28.5111 3.69321C28.2464 2.54593 27.8873 1.9014 27.5129 1.9014Z" fill="white"/>
</svg>
