<svg width="60" height="60" viewBox="0 0 60 60" fill="none" xmlns="http://www.w3.org/2000/svg">
<path d="M57.4828 43.1411C58.7508 40.08 59.4329 36.8097 59.4953 33.5H33.5V59.4953C36.8098 59.4328 40.0801 58.7507 43.1411 57.4828C46.3563 56.1511 49.2776 54.1991 51.7384 51.7383C54.1991 49.2776 56.1511 46.3562 57.4828 43.1411Z" fill="white" stroke="#005EFF"/>
<mask id="path-2-inside-1_183_203" fill="white">
<path d="M60 30C60 24.0666 58.2405 18.2664 54.9441 13.3329C51.6476 8.39942 46.9623 4.55424 41.4805 2.28361C35.9987 0.012985 29.9667 -0.581115 24.1473 0.576442C18.3279 1.734 12.9824 4.59122 8.7868 8.7868C4.59122 12.9824 1.734 18.3279 0.576442 24.1473C-0.581115 29.9667 0.0129851 35.9987 2.28361 41.4805C4.55424 46.9623 8.39942 51.6476 13.3329 54.9441C18.2664 58.2405 24.0666 60 30 60V30H60Z"/>
</mask>
<path d="M60 30C60 24.0666 58.2405 18.2664 54.9441 13.3329C51.6476 8.39942 46.9623 4.55424 41.4805 2.28361C35.9987 0.012985 29.9667 -0.581115 24.1473 0.576442C18.3279 1.734 12.9824 4.59122 8.7868 8.7868C4.59122 12.9824 1.734 18.3279 0.576442 24.1473C-0.581115 29.9667 0.0129851 35.9987 2.28361 41.4805C4.55424 46.9623 8.39942 51.6476 13.3329 54.9441C18.2664 58.2405 24.0666 60 30 60V30H60Z" fill="#005EFF" stroke="#005EFF" stroke-width="2" mask="url(#path-2-inside-1_183_203)"/>
</svg>
