<svg width="85" height="63" viewBox="0 0 85 63" fill="none" xmlns="http://www.w3.org/2000/svg">
<circle cx="45" cy="31.5" r="31" fill="white" stroke="#005EFF"/>
<path d="M2.04972 47V35.3636H5.98153C6.89441 35.3636 7.64063 35.5284 8.22017 35.858C8.8035 36.1837 9.23532 36.625 9.51562 37.1818C9.79593 37.7386 9.93608 38.3598 9.93608 39.0455C9.93608 39.7311 9.79593 40.3542 9.51562 40.9148C9.23911 41.4754 8.81108 41.9223 8.23153 42.2557C7.65199 42.5852 6.90956 42.75 6.00426 42.75H3.18608V41.5H5.95881C6.58381 41.5 7.0857 41.392 7.46449 41.1761C7.84328 40.9602 8.1179 40.6686 8.28835 40.3011C8.46259 39.9299 8.54972 39.5114 8.54972 39.0455C8.54972 38.5795 8.46259 38.1629 8.28835 37.7955C8.1179 37.428 7.84138 37.1402 7.45881 36.9318C7.07623 36.7197 6.56866 36.6136 5.93608 36.6136H3.45881V47H2.04972ZM18.5696 38.2727C18.5014 37.697 18.2249 37.25 17.7401 36.9318C17.2552 36.6136 16.6605 36.4545 15.956 36.4545C15.4408 36.4545 14.9901 36.5379 14.6037 36.7045C14.2211 36.8712 13.9219 37.1004 13.706 37.392C13.4938 37.6837 13.3878 38.0152 13.3878 38.3864C13.3878 38.697 13.4616 38.964 13.6094 39.1875C13.7609 39.4072 13.9541 39.5909 14.1889 39.7386C14.4238 39.8826 14.67 40.0019 14.9276 40.0966C15.1851 40.1875 15.4219 40.2614 15.6378 40.3182L16.8196 40.6364C17.1226 40.7159 17.4598 40.8258 17.831 40.9659C18.206 41.1061 18.5639 41.2973 18.9048 41.5398C19.2495 41.7784 19.5336 42.0852 19.7571 42.4602C19.9806 42.8352 20.0923 43.2955 20.0923 43.8409C20.0923 44.4697 19.9276 45.0379 19.598 45.5455C19.2723 46.053 18.795 46.4564 18.1662 46.7557C17.5412 47.0549 16.7817 47.2045 15.8878 47.2045C15.0545 47.2045 14.3329 47.0701 13.723 46.8011C13.117 46.5322 12.6397 46.1572 12.2912 45.6761C11.9465 45.1951 11.7514 44.6364 11.706 44H13.1605C13.1984 44.4394 13.3461 44.803 13.6037 45.0909C13.8651 45.375 14.1946 45.5871 14.5923 45.7273C14.9938 45.8636 15.4257 45.9318 15.8878 45.9318C16.4257 45.9318 16.9086 45.8447 17.3366 45.6705C17.7647 45.4924 18.1037 45.2462 18.3537 44.9318C18.6037 44.6136 18.7287 44.2424 18.7287 43.8182C18.7287 43.4318 18.6207 43.1174 18.4048 42.875C18.1889 42.6326 17.9048 42.4356 17.5526 42.2841C17.2003 42.1326 16.8196 42 16.4105 41.8864L14.9787 41.4773C14.0696 41.2159 13.3499 40.8428 12.8196 40.358C12.2893 39.8731 12.0241 39.2386 12.0241 38.4545C12.0241 37.803 12.2003 37.2348 12.5526 36.75C12.9086 36.2614 13.3859 35.8826 13.9844 35.6136C14.5866 35.3409 15.259 35.2045 16.0014 35.2045C16.7514 35.2045 17.4181 35.339 18.0014 35.608C18.5848 35.8731 19.0469 36.2367 19.3878 36.6989C19.7325 37.161 19.9143 37.6856 19.9332 38.2727H18.5696ZM30.0455 35.3636H31.4545V43.0682C31.4545 43.8636 31.267 44.5739 30.892 45.1989C30.5208 45.8201 29.9962 46.3106 29.3182 46.6705C28.6402 47.0265 27.8447 47.2045 26.9318 47.2045C26.0189 47.2045 25.2235 47.0265 24.5455 46.6705C23.8674 46.3106 23.3409 45.8201 22.9659 45.1989C22.5947 44.5739 22.4091 43.8636 22.4091 43.0682V35.3636H23.8182V42.9545C23.8182 43.5227 23.9432 44.0284 24.1932 44.4716C24.4432 44.911 24.7992 45.2576 25.2614 45.5114C25.7273 45.7614 26.2841 45.8864 26.9318 45.8864C27.5795 45.8864 28.1364 45.7614 28.6023 45.5114C29.0682 45.2576 29.4242 44.911 29.6705 44.4716C29.9205 44.0284 30.0455 43.5227 30.0455 42.9545V35.3636ZM37.8594 47H34.2685V35.3636H38.0185C39.1473 35.3636 40.1132 35.5966 40.9162 36.0625C41.7192 36.5246 42.3348 37.1894 42.7628 38.0568C43.1908 38.9205 43.4048 39.9545 43.4048 41.1591C43.4048 42.3712 43.1889 43.4148 42.7571 44.2898C42.3253 45.161 41.6965 45.8314 40.8707 46.3011C40.045 46.767 39.0412 47 37.8594 47ZM35.6776 45.75H37.7685C38.7306 45.75 39.5279 45.5644 40.1605 45.1932C40.7931 44.822 41.2647 44.2936 41.5753 43.608C41.8859 42.9223 42.0412 42.1061 42.0412 41.1591C42.0412 40.2197 41.8878 39.411 41.581 38.733C41.2741 38.0511 40.8158 37.5284 40.206 37.1648C39.5961 36.7973 38.8366 36.6136 37.9276 36.6136H35.6776V45.75Z" fill="#005EFF"/>
<path d="M2.04972 47H-0.950284V50H2.04972V47ZM2.04972 35.3636V32.3636H-0.950284V35.3636H2.04972ZM8.22017 35.858L6.73726 38.4658L6.74734 38.4716L6.75747 38.4772L8.22017 35.858ZM9.51562 37.1818L6.836 38.5307L6.836 38.5307L9.51562 37.1818ZM9.51562 40.9148L6.83234 39.5731L6.82871 39.5804L6.82511 39.5877L9.51562 40.9148ZM8.23153 42.2557L9.71444 44.8636L9.72086 44.8599L9.72727 44.8562L8.23153 42.2557ZM3.18608 42.75H0.18608V45.75H3.18608V42.75ZM3.18608 41.5V38.5H0.18608V41.5H3.18608ZM7.46449 41.1761L5.97888 38.5698L5.97888 38.5698L7.46449 41.1761ZM8.28835 40.3011L5.57261 39.0264L5.56694 39.0386L8.28835 40.3011ZM8.28835 37.7955L5.56694 39.058L5.57228 39.0695L5.57771 39.0809L8.28835 37.7955ZM7.45881 36.9318L6.00408 39.5555L6.01406 39.561L6.02408 39.5665L7.45881 36.9318ZM3.45881 36.6136V33.6136H0.458807V36.6136H3.45881ZM3.45881 47V50H6.45881V47H3.45881ZM5.04972 47V35.3636H-0.950284V47H5.04972ZM2.04972 38.3636H5.98153V32.3636H2.04972V38.3636ZM5.98153 38.3636C6.55813 38.3636 6.74626 38.4709 6.73726 38.4658L9.70308 33.2501C8.53499 32.5859 7.23069 32.3636 5.98153 32.3636V38.3636ZM6.75747 38.4772C6.78896 38.4948 6.80911 38.5087 6.8207 38.5175C6.83213 38.5261 6.83687 38.531 6.83733 38.5314C6.83771 38.5318 6.83645 38.5305 6.83485 38.5283C6.83327 38.526 6.83374 38.5263 6.836 38.5307L12.1953 35.8329C11.6257 34.7015 10.7502 33.8347 9.68287 33.2387L6.75747 38.4772ZM6.836 38.5307C6.88528 38.6286 6.93608 38.7808 6.93608 39.0455H12.9361C12.9361 37.9389 12.7066 36.8486 12.1953 35.8329L6.836 38.5307ZM6.93608 39.0455C6.93608 39.3098 6.88535 39.4671 6.83234 39.5731L12.1989 42.2564C12.7065 41.2412 12.9361 40.1523 12.9361 39.0455H6.93608ZM6.82511 39.5877C6.82212 39.5938 6.82074 39.5955 6.82127 39.5948C6.82181 39.594 6.82197 39.594 6.82049 39.5955C6.81917 39.5969 6.79782 39.6195 6.7358 39.6551L9.72727 44.8562C10.7849 44.2479 11.6479 43.3737 12.2061 42.2418L6.82511 39.5877ZM6.74863 39.6478C6.75436 39.6446 6.56816 39.75 6.00426 39.75V45.75C7.25097 45.75 8.54962 45.5259 9.71444 44.8636L6.74863 39.6478ZM6.00426 39.75H3.18608V45.75H6.00426V39.75ZM6.18608 42.75V41.5H0.18608V42.75H6.18608ZM3.18608 44.5H5.95881V38.5H3.18608V44.5ZM5.95881 44.5C6.89231 44.5 7.96427 44.3444 8.9501 43.7825L5.97888 38.5698C6.09844 38.5017 6.17591 38.4855 6.17312 38.4861C6.1723 38.4863 6.155 38.4899 6.11839 38.4934C6.08182 38.4969 6.02924 38.5 5.95881 38.5V44.5ZM8.9501 43.7825C9.82674 43.2828 10.5566 42.5405 11.0098 41.5636L5.56694 39.0386C5.61555 38.9339 5.68473 38.8299 5.77036 38.7389C5.85452 38.6495 5.93215 38.5964 5.97888 38.5698L8.9501 43.7825ZM11.0041 41.5759C11.3895 40.7547 11.5497 39.8919 11.5497 39.0455H5.54972C5.54972 39.0912 5.54548 39.1063 5.54732 39.0975C5.54821 39.0932 5.55035 39.0842 5.55461 39.0713C5.55888 39.0584 5.56479 39.0431 5.57264 39.0264L11.0041 41.5759ZM11.5497 39.0455C11.5497 38.1997 11.3897 37.3339 10.999 36.51L5.57771 39.0809C5.56854 39.0616 5.56165 39.044 5.55665 39.0289C5.55167 39.014 5.54906 39.0032 5.54788 38.9975C5.54546 38.986 5.54972 38.9996 5.54972 39.0455H11.5497ZM11.0098 36.5329C10.5477 35.537 9.79578 34.7885 8.89354 34.2971L6.02408 39.5665C5.96986 39.537 5.8828 39.4793 5.78953 39.3822C5.69463 39.2834 5.6192 39.1706 5.56694 39.058L11.0098 36.5329ZM8.91353 34.3081C7.93107 33.7634 6.86521 33.6136 5.93608 33.6136V39.6136C6.01094 39.6136 6.06805 39.6168 6.1092 39.6206C6.15041 39.6245 6.17229 39.6287 6.17758 39.6298C6.18986 39.6323 6.11936 39.6194 6.00408 39.5555L8.91353 34.3081ZM5.93608 33.6136H3.45881V39.6136H5.93608V33.6136ZM0.458807 36.6136V47H6.45881V36.6136H0.458807ZM3.45881 44H2.04972V50H3.45881V44ZM18.5696 38.2727L15.5904 38.6255L15.9039 41.2727H18.5696V38.2727ZM17.7401 36.9318L16.0941 39.44L16.0941 39.44L17.7401 36.9318ZM14.6037 36.7045L13.4154 33.9499L13.4055 33.9542L14.6037 36.7045ZM13.706 37.392L11.2947 35.6071L11.2872 35.6173L11.2798 35.6275L13.706 37.392ZM13.6094 39.1875L11.1067 40.8418L11.123 40.8664L11.1397 40.8907L13.6094 39.1875ZM14.1889 39.7386L12.5916 42.278L12.6063 42.2873L12.6212 42.2964L14.1889 39.7386ZM14.9276 40.0966L13.8924 42.9123L13.9107 42.9191L13.9291 42.9256L14.9276 40.0966ZM15.6378 40.3182L16.4177 37.4213L16.4095 37.4191L16.4013 37.417L15.6378 40.3182ZM16.8196 40.6364L16.0397 43.5332L16.0488 43.5357L16.0579 43.5381L16.8196 40.6364ZM17.831 40.9659L16.7713 43.7726L16.7807 43.7761L17.831 40.9659ZM18.9048 41.5398L17.1663 43.9846L17.1817 43.9956L17.1972 44.0063L18.9048 41.5398ZM19.7571 42.4602L22.3342 40.9244L22.3342 40.9244L19.7571 42.4602ZM19.598 45.5455L17.0818 43.9118L17.0775 43.9184L17.0733 43.9251L19.598 45.5455ZM18.1662 46.7557L16.877 44.0468L16.8707 44.0498L18.1662 46.7557ZM13.723 46.8011L12.5062 49.5433L12.5125 49.5461L13.723 46.8011ZM12.2912 45.6761L9.85259 47.4235L9.85712 47.4298L9.86168 47.4361L12.2912 45.6761ZM11.706 44V41H8.48404L8.71359 44.2137L11.706 44ZM13.1605 44L16.1494 43.7423L15.913 41H13.1605V44ZM13.6037 45.0909L11.368 47.0913L11.3818 47.1068L11.3959 47.1221L13.6037 45.0909ZM14.5923 45.7273L13.5953 48.5567L13.6114 48.5624L13.6276 48.5679L14.5923 45.7273ZM17.3366 45.6705L18.4678 48.449L18.4783 48.4448L18.4888 48.4404L17.3366 45.6705ZM18.3537 44.9318L20.7018 46.799L20.7072 46.7922L20.7126 46.7853L18.3537 44.9318ZM18.4048 42.875L20.6451 40.8797L20.6451 40.8797L18.4048 42.875ZM17.5526 42.2841L16.3672 45.04L16.3672 45.04L17.5526 42.2841ZM16.4105 41.8864L15.5863 44.7709L15.597 44.774L15.6076 44.7769L16.4105 41.8864ZM14.9787 41.4773L14.1498 44.3605L14.1545 44.3618L14.9787 41.4773ZM12.8196 40.358L10.7953 42.572L10.7953 42.572L12.8196 40.358ZM12.5526 36.75L10.128 34.9832L10.1255 34.9866L12.5526 36.75ZM13.9844 35.6136L15.214 38.3501L15.2219 38.3465L13.9844 35.6136ZM18.0014 35.608L16.7454 38.3323L16.7527 38.3357L16.76 38.3391L18.0014 35.608ZM19.3878 36.6989L16.9736 38.4798L16.9783 38.4862L16.9831 38.4926L19.3878 36.6989ZM19.9332 38.2727V41.2727H23.0316L22.9317 38.176L19.9332 38.2727ZM21.5488 37.9199C21.3764 36.4638 20.6116 35.228 19.386 34.4237L16.0941 39.44C16.0087 39.384 15.8748 39.2698 15.7598 39.084C15.6449 38.8982 15.6025 38.7272 15.5904 38.6255L21.5488 37.9199ZM19.386 34.4237C18.316 33.7214 17.1185 33.4545 15.956 33.4545V39.4545C16.0834 39.4545 16.144 39.469 16.1551 39.472C16.1624 39.4739 16.1353 39.467 16.0941 39.44L19.386 34.4237ZM15.956 33.4545C15.1215 33.4545 14.2512 33.5894 13.4154 33.9499L15.792 39.4592C15.729 39.4864 15.7602 39.4545 15.956 39.4545V33.4545ZM13.4055 33.9542C12.6143 34.2989 11.8678 34.833 11.2947 35.6071L16.1172 39.177C16.0519 39.2652 15.9808 39.3339 15.9164 39.3832C15.8537 39.4312 15.8099 39.4514 15.8019 39.4549L13.4055 33.9542ZM11.2798 35.6275C10.6832 36.4478 10.3878 37.401 10.3878 38.3864H16.3878C16.3878 38.4904 16.3723 38.6247 16.3246 38.7737C16.2767 38.9235 16.2073 39.0533 16.1322 39.1566L11.2798 35.6275ZM10.3878 38.3864C10.3878 39.1891 10.5854 40.0531 11.1067 40.8418L16.112 37.5332C16.3379 37.8749 16.3878 38.2048 16.3878 38.3864H10.3878ZM11.1397 40.8907C11.5315 41.4587 12.0262 41.9224 12.5916 42.278L15.7863 37.1993C15.882 37.2594 15.9903 37.3557 16.079 37.4843L11.1397 40.8907ZM12.6212 42.2964C13.024 42.5433 13.4485 42.7492 13.8924 42.9123L15.9628 37.2809C15.8914 37.2546 15.8235 37.2218 15.7566 37.1808L12.6212 42.2964ZM13.9291 42.9256C14.2476 43.038 14.564 43.1377 14.8743 43.2194L16.4013 37.417C16.2798 37.385 16.1226 37.337 15.926 37.2676L13.9291 42.9256ZM14.8579 43.215L16.0397 43.5332L17.5995 37.7395L16.4177 37.4213L14.8579 43.215ZM16.0579 43.5381C16.2377 43.5852 16.4734 43.66 16.7713 43.7725L18.8906 38.1593C18.4462 37.9915 18.0076 37.8466 17.5813 37.7347L16.0579 43.5381ZM16.7807 43.7761C16.9006 43.8209 17.0284 43.8866 17.1663 43.9846L20.6434 39.0949C20.0995 38.7081 19.5113 38.3912 18.8812 38.1558L16.7807 43.7761ZM17.1972 44.0063C17.1944 44.0044 17.1905 44.0015 17.1862 43.9977C17.1818 43.9939 17.178 43.9902 17.1751 43.9871C17.1723 43.984 17.1712 43.9824 17.1717 43.9832C17.1723 43.984 17.1752 43.988 17.18 43.9961L22.3342 40.9244C21.9001 40.1961 21.3249 39.5664 20.6125 39.0732L17.1972 44.0063ZM17.18 43.996C17.1258 43.9051 17.1021 43.8311 17.0932 43.7945C17.0851 43.761 17.0923 43.7715 17.0923 43.8409H23.0923C23.0923 42.8884 22.8957 41.8666 22.3342 40.9244L17.18 43.996ZM17.0923 43.8409C17.0923 43.8668 17.0907 43.8834 17.0895 43.892C17.0883 43.9005 17.0873 43.9037 17.0875 43.9031C17.0875 43.9029 17.0876 43.9025 17.0879 43.9018C17.088 43.9015 17.0881 43.9013 17.0882 43.9011C17.0883 43.9009 17.0883 43.9008 17.0883 43.9008C17.0883 43.9008 17.0879 43.9016 17.087 43.9032C17.0861 43.9049 17.0845 43.9077 17.0818 43.9118L22.1142 47.1791C22.7723 46.1655 23.0923 45.0257 23.0923 43.8409H17.0923ZM17.0733 43.9251C17.0777 43.9182 17.0777 43.9218 17.0591 43.9375C17.0384 43.955 16.9847 43.9955 16.877 44.0468L19.4554 49.4646C20.5098 48.9627 21.4504 48.2135 22.1228 47.1658L17.0733 43.9251ZM16.8707 44.0498C16.7497 44.1077 16.4587 44.2045 15.8878 44.2045V50.2045C17.1047 50.2045 18.3327 50.0021 19.4617 49.4615L16.8707 44.0498ZM15.8878 44.2045C15.3702 44.2045 15.0792 44.1204 14.9335 44.0562L12.5125 49.5461C13.5865 50.0197 14.7387 50.2045 15.8878 50.2045V44.2045ZM14.9398 44.059C14.76 43.9792 14.7237 43.9203 14.7207 43.9162L9.86168 47.4361C10.5556 48.3941 11.4739 49.0852 12.5062 49.5433L14.9398 44.059ZM14.7298 43.9288C14.7242 43.921 14.7218 43.9164 14.7187 43.9074C14.715 43.8969 14.7037 43.8606 14.6983 43.7863L8.71359 44.2137C8.79531 45.3578 9.16007 46.457 9.85259 47.4235L14.7298 43.9288ZM11.706 47H13.1605V41H11.706V47ZM10.1716 44.2577C10.257 45.2484 10.6173 46.2523 11.368 47.0913L15.8394 43.0905C15.9443 43.2078 16.0253 43.3407 16.0791 43.4731C16.1313 43.6017 16.1457 43.6992 16.1494 43.7423L10.1716 44.2577ZM11.3959 47.1221C12.0195 47.7999 12.7785 48.2689 13.5953 48.5567L15.5894 42.8978C15.5941 42.8995 15.6249 42.911 15.6706 42.9405C15.7174 42.9706 15.7666 43.0109 15.8115 43.0597L11.3959 47.1221ZM13.6276 48.5679C14.3665 48.8189 15.1269 48.9318 15.8878 48.9318V42.9318C15.7244 42.9318 15.6212 42.9084 15.5571 42.8866L13.6276 48.5679ZM15.8878 48.9318C16.7508 48.9318 17.6267 48.7914 18.4678 48.449L16.2055 42.8919C16.1905 42.898 16.1006 42.9318 15.8878 42.9318V48.9318ZM18.4888 48.4404C19.3125 48.0978 20.0902 47.5682 20.7018 46.799L16.0056 43.0646C16.0566 43.0005 16.1085 42.9543 16.149 42.9249C16.1879 42.8967 16.2049 42.892 16.1845 42.9005L18.4888 48.4404ZM20.7126 46.7853C21.3991 45.9117 21.7287 44.8796 21.7287 43.8182H15.7287C15.7287 43.7318 15.7421 43.6049 15.7918 43.4574C15.842 43.3082 15.9155 43.1792 15.9947 43.0784L20.7126 46.7853ZM21.7287 43.8182C21.7287 42.8436 21.4403 41.7726 20.6451 40.8797L16.1645 44.8703C16.0013 44.6869 15.8825 44.477 15.8103 44.2669C15.7408 44.0643 15.7287 43.9038 15.7287 43.8182H21.7287ZM20.6451 40.8797C20.0892 40.2556 19.4209 39.822 18.7379 39.5282L16.3672 45.04C16.3888 45.0493 16.2886 45.0096 16.1645 44.8703L20.6451 40.8797ZM18.7379 39.5282C18.249 39.3179 17.7392 39.1419 17.2134 38.9958L15.6076 44.7769C15.9 44.8581 16.1516 44.9472 16.3672 45.04L18.7379 39.5282ZM17.2347 39.0018L15.8029 38.5927L14.1545 44.3618L15.5863 44.7709L17.2347 39.0018ZM15.8076 38.5941C15.2082 38.4217 14.9422 38.2338 14.8439 38.1439L10.7953 42.572C11.7576 43.4518 12.931 44.0101 14.1498 44.3605L15.8076 38.5941ZM14.8439 38.1439C14.8609 38.1594 14.8877 38.1873 14.917 38.2284C14.9465 38.2699 14.9718 38.3156 14.991 38.3617C15.0316 38.4587 15.0241 38.5048 15.0241 38.4545H9.02415C9.02415 39.9951 9.58272 41.4634 10.7953 42.572L14.8439 38.1439ZM15.0241 38.4545C15.0241 38.427 15.026 38.4129 15.0264 38.4103C15.0267 38.408 15.0259 38.4146 15.0217 38.4281C15.0175 38.4417 15.0112 38.4579 15.0027 38.4748C14.9943 38.4916 14.9859 38.5048 14.9796 38.5134L10.1255 34.9866C9.36803 36.0292 9.02415 37.2277 9.02415 38.4545H15.0241ZM14.9771 38.5167C15.0001 38.4853 15.0496 38.4239 15.214 38.35L12.7547 32.8772C11.7222 33.3412 10.8172 34.0375 10.128 34.9833L14.9771 38.5167ZM15.2219 38.3465C15.3901 38.2703 15.6332 38.2045 16.0014 38.2045V32.2045C14.8848 32.2045 13.7832 32.4115 12.7469 32.8808L15.2219 38.3465ZM16.0014 38.2045C16.3899 38.2045 16.6165 38.2729 16.7454 38.3323L19.2575 32.8836C18.2197 32.4051 17.113 32.2045 16.0014 32.2045V38.2045ZM16.76 38.3391C16.9328 38.4176 16.9702 38.4752 16.9736 38.4798L21.802 34.9179C21.1235 33.9983 20.2367 33.3286 19.2428 32.8769L16.76 38.3391ZM16.9831 38.4926C16.9785 38.4864 16.9618 38.4609 16.9481 38.4213C16.9345 38.3822 16.9345 38.3601 16.9348 38.3695L22.9317 38.176C22.8934 36.9882 22.5113 35.8688 21.7925 34.9052L16.9831 38.4926ZM19.9332 35.2727H18.5696V41.2727H19.9332V35.2727ZM30.0455 35.3636V32.3636H27.0455V35.3636H30.0455ZM31.4545 35.3636H34.4545V32.3636H31.4545V35.3636ZM30.892 45.1989L28.3196 43.6554L28.3168 43.66L30.892 45.1989ZM29.3182 46.6705L30.713 49.3265L30.7246 49.3204L29.3182 46.6705ZM24.5455 46.6705L23.1391 49.3204L23.1507 49.3265L24.5455 46.6705ZM22.9659 45.1989L20.3866 46.7308L20.392 46.7401L20.3976 46.7493L22.9659 45.1989ZM22.4091 35.3636V32.3636H19.4091V35.3636H22.4091ZM23.8182 35.3636H26.8182V32.3636H23.8182V35.3636ZM24.1932 44.4716L21.5802 45.9456L21.5857 45.9552L24.1932 44.4716ZM25.2614 45.5114L23.8173 48.1409L23.8301 48.1479L23.8429 48.1548L25.2614 45.5114ZM28.6023 45.5114L30.0207 48.1548L30.029 48.1504L30.0373 48.1459L28.6023 45.5114ZM29.6705 44.4716L27.0575 42.9976L27.0533 43.0051L29.6705 44.4716ZM30.0455 38.3636H31.4545V32.3636H30.0455V38.3636ZM28.4545 35.3636V43.0682H34.4545V35.3636H28.4545ZM28.4545 43.0682C28.4545 43.3712 28.3895 43.5387 28.3196 43.6554L33.4645 46.7424C34.1445 45.609 34.4545 44.3561 34.4545 43.0682H28.4545ZM28.3168 43.66C28.2438 43.7822 28.1367 43.9012 27.9118 44.0205L30.7246 49.3204C31.8557 48.72 32.7979 47.8579 33.4673 46.7377L28.3168 43.66ZM27.9234 44.0144C27.7509 44.105 27.4516 44.2045 26.9318 44.2045V50.2045C28.2378 50.2045 29.5294 49.948 30.713 49.3265L27.9234 44.0144ZM26.9318 44.2045C26.412 44.2045 26.1127 44.105 25.9402 44.0144L23.1507 49.3265C24.3342 49.948 25.6259 50.2045 26.9318 50.2045V44.2045ZM25.9518 44.0205C25.7246 43.8999 25.6121 43.7775 25.5342 43.6485L20.3976 46.7493C21.0697 47.8626 22.0103 48.7213 23.1391 49.3204L25.9518 44.0205ZM25.5453 43.6669C25.475 43.5486 25.4091 43.3769 25.4091 43.0682H19.4091C19.4091 44.3504 19.7144 45.5992 20.3866 46.7308L25.5453 43.6669ZM25.4091 43.0682V35.3636H19.4091V43.0682H25.4091ZM22.4091 38.3636H23.8182V32.3636H22.4091V38.3636ZM20.8182 35.3636V42.9545H26.8182V35.3636H20.8182ZM20.8182 42.9545C20.8182 43.9777 21.0479 45.0019 21.5802 45.9456L26.8061 42.9976C26.8112 43.0067 26.8157 43.0161 26.8191 43.0248C26.8226 43.0335 26.824 43.039 26.8243 43.04C26.825 43.043 26.8182 43.0178 26.8182 42.9545H20.8182ZM21.5857 45.9552C22.1221 46.898 22.8907 47.6321 23.8173 48.1409L26.7055 42.8818C26.6967 42.877 26.7133 42.8851 26.7403 42.9114C26.7679 42.9382 26.7886 42.9669 26.8007 42.988L21.5857 45.9552ZM23.8429 48.1548C24.8327 48.6859 25.8992 48.8864 26.9318 48.8864V42.8864C26.669 42.8864 26.6219 42.8368 26.6798 42.8679L23.8429 48.1548ZM26.9318 48.8864C27.9644 48.8864 29.031 48.6859 30.0207 48.1548L27.1838 42.8679C27.2418 42.8368 27.1947 42.8864 26.9318 42.8864V48.8864ZM30.0373 48.1459C30.9717 47.6369 31.7502 46.8972 32.2876 45.9381L27.0533 43.0051C27.0694 42.9765 27.0946 42.9422 27.1262 42.9114C27.157 42.8814 27.1762 42.872 27.1672 42.8769L30.0373 48.1459ZM32.2834 45.9456C32.8157 45.0019 33.0455 43.9777 33.0455 42.9545H27.0455C27.0455 43.0178 27.0386 43.043 27.0394 43.04C27.0396 43.039 27.0411 43.0335 27.0445 43.0248C27.048 43.0161 27.0524 43.0067 27.0575 42.9976L32.2834 45.9456ZM33.0455 42.9545V35.3636H27.0455V42.9545H33.0455ZM34.2685 47H31.2685V50H34.2685V47ZM34.2685 35.3636V32.3636H31.2685V35.3636H34.2685ZM40.9162 36.0625L39.4107 38.6574L39.4199 38.6627L40.9162 36.0625ZM42.7628 38.0568L40.0725 39.3843L40.0748 39.389L42.7628 38.0568ZM42.7571 44.2898L45.445 45.6221L45.4473 45.6174L42.7571 44.2898ZM40.8707 46.3011L42.3449 48.914L42.354 48.9088L40.8707 46.3011ZM35.6776 45.75H32.6776V48.75H35.6776V45.75ZM40.1605 45.1932L38.6422 42.6058L40.1605 45.1932ZM41.581 38.733L38.8452 39.9641L38.8478 39.9698L41.581 38.733ZM40.206 37.1648L38.6578 39.7345L38.6695 39.7415L40.206 37.1648ZM35.6776 36.6136V33.6136H32.6776V36.6136H35.6776ZM37.8594 44H34.2685V50H37.8594V44ZM37.2685 47V35.3636H31.2685V47H37.2685ZM34.2685 38.3636H38.0185V32.3636H34.2685V38.3636ZM38.0185 38.3636C38.7323 38.3636 39.1543 38.5086 39.4107 38.6574L42.4217 33.4676C41.072 32.6845 39.5622 32.3636 38.0185 32.3636V38.3636ZM39.4199 38.6627C39.6841 38.8148 39.8953 39.0253 40.0725 39.3843L45.4531 36.7293C44.7742 35.3535 43.7543 34.2345 42.4125 33.4623L39.4199 38.6627ZM40.0748 39.389C40.2528 39.7482 40.4048 40.304 40.4048 41.1591H46.4048C46.4048 39.605 46.1288 38.0927 45.4508 36.7246L40.0748 39.389ZM40.4048 41.1591C40.4048 42.0198 40.2516 42.5878 40.0669 42.9621L45.4473 45.6174C46.1263 44.2417 46.4048 42.7226 46.4048 41.1591H40.4048ZM40.0692 42.9575C39.8962 43.3064 39.6807 43.5267 39.3875 43.6935L42.354 48.9088C43.7123 48.1362 44.7544 47.0155 45.445 45.6221L40.0692 42.9575ZM39.3965 43.6883C39.1187 43.8451 38.6503 44 37.8594 44V50C39.4321 50 40.9712 49.689 42.3449 48.9139L39.3965 43.6883ZM35.6776 48.75H37.7685V42.75H35.6776V48.75ZM37.7685 48.75C39.1024 48.75 40.4638 48.4936 41.6789 47.7806L38.6422 42.6058C38.5921 42.6352 38.3588 42.75 37.7685 42.75V48.75ZM41.6789 47.7806C42.8606 47.0871 43.7488 46.0802 44.3079 44.846L38.8426 42.37C38.7806 42.507 38.7256 42.5568 38.6422 42.6058L41.6789 47.7806ZM44.3079 44.846C44.834 43.6847 45.0412 42.4263 45.0412 41.1591H39.0412C39.0412 41.7858 38.9377 42.16 38.8426 42.37L44.3079 44.846ZM45.0412 41.1591C45.0412 39.9014 44.8366 38.6506 44.3142 37.4961L38.8478 39.9698C38.939 40.1714 39.0412 40.538 39.0412 41.1591H45.0412ZM44.3167 37.5019C43.7717 36.2907 42.9094 35.2839 41.7424 34.5881L38.6695 39.7415C38.7222 39.7729 38.7766 39.8116 38.8452 39.964L44.3167 37.5019ZM41.7541 34.5951C40.5641 33.8782 39.2335 33.6136 37.9276 33.6136V39.6136C38.4398 39.6136 38.6281 39.7165 38.6578 39.7344L41.7541 34.5951ZM37.9276 33.6136H35.6776V39.6136H37.9276V33.6136ZM32.6776 36.6136V45.75H38.6776V36.6136H32.6776Z" fill="white"/>
<path d="M63.25 28V8H64.2734V28H63.25ZM67.6484 14C67.5599 13.1094 67.1667 12.401 66.4688 11.875C65.7708 11.349 64.8932 11.0859 63.8359 11.0859C63.0911 11.0859 62.4349 11.2135 61.8672 11.4687C61.3047 11.724 60.862 12.0781 60.5391 12.5312C60.2214 12.9792 60.0625 13.4896 60.0625 14.0625C60.0625 14.4844 60.1536 14.8542 60.3359 15.1719C60.5182 15.4896 60.763 15.763 61.0703 15.9922C61.3828 16.2161 61.7266 16.4089 62.1016 16.5703C62.4818 16.7318 62.8646 16.8672 63.25 16.9766L64.9375 17.4609C65.4479 17.6016 65.9583 17.7812 66.4688 18C66.9792 18.2187 67.4453 18.4948 67.8672 18.8281C68.2943 19.1562 68.6354 19.5599 68.8906 20.0391C69.151 20.513 69.2813 21.0833 69.2813 21.75C69.2813 22.6042 69.0599 23.3724 68.6172 24.0547C68.1745 24.737 67.5391 25.2786 66.7109 25.6797C65.8828 26.0755 64.8906 26.2734 63.7344 26.2734C62.6458 26.2734 61.7005 26.0937 60.8984 25.7344C60.0964 25.3698 59.4661 24.8672 59.0078 24.2266C58.5495 23.5859 58.2917 22.8437 58.2344 22H59.7344C59.7865 22.6302 59.9948 23.1641 60.3594 23.6016C60.724 24.0391 61.1979 24.3724 61.7813 24.6016C62.3646 24.8255 63.0156 24.9375 63.7344 24.9375C64.5313 24.9375 65.2396 24.8047 65.8594 24.5391C66.4844 24.2682 66.974 23.8932 67.3281 23.4141C67.6875 22.9297 67.8672 22.3672 67.8672 21.7266C67.8672 21.1849 67.7266 20.7318 67.4453 20.3672C67.1641 19.9974 66.7708 19.6875 66.2656 19.4375C65.7656 19.1875 65.1849 18.9661 64.5234 18.7734L62.6094 18.2109C61.3542 17.8359 60.3802 17.3177 59.6875 16.6562C58.9948 15.9948 58.6484 15.151 58.6484 14.125C58.6484 13.2656 58.8776 12.5104 59.3359 11.8594C59.7995 11.2031 60.4245 10.6927 61.2109 10.3281C62.0026 9.95833 62.8906 9.77344 63.875 9.77344C64.8698 9.77344 65.75 9.95573 66.5156 10.3203C67.2813 10.6849 67.888 11.1875 68.3359 11.8281C68.7891 12.4635 69.0313 13.1875 69.0625 14H67.6484ZM77.4219 26.2187C76.2969 26.2187 75.3359 25.8958 74.5391 25.25C73.7474 24.599 73.138 23.6589 72.7109 22.4297C72.2891 21.2005 72.0781 19.724 72.0781 18C72.0781 16.2812 72.2891 14.8099 72.7109 13.5859C73.138 12.3568 73.75 11.4167 74.5469 10.7656C75.349 10.1094 76.3073 9.78125 77.4219 9.78125C78.5365 9.78125 79.4922 10.1094 80.2891 10.7656C81.0911 11.4167 81.7031 12.3568 82.125 13.5859C82.5521 14.8099 82.7656 16.2812 82.7656 18C82.7656 19.724 82.5521 21.2005 82.125 22.4297C81.7031 23.6589 81.0938 24.599 80.2969 25.25C79.5052 25.8958 78.5469 26.2187 77.4219 26.2187ZM77.4219 24.9062C78.6563 24.9062 79.6198 24.3047 80.3125 23.1016C81.0052 21.8932 81.3516 20.1927 81.3516 18C81.3516 16.5417 81.1927 15.2969 80.875 14.2656C80.5625 13.2292 80.112 12.4375 79.5234 11.8906C78.9401 11.3437 78.2396 11.0703 77.4219 11.0703C76.1979 11.0703 75.237 11.6797 74.5391 12.8984C73.8411 14.112 73.4922 15.8125 73.4922 18C73.4922 19.4583 73.6484 20.7031 73.9609 21.7344C74.2786 22.7656 74.7292 23.5521 75.3125 24.0938C75.901 24.6354 76.6042 24.9062 77.4219 24.9062Z" fill="#005EFF"/>
<path d="M63.25 28H60.25V31H63.25V28ZM63.25 8V5H60.25V8H63.25ZM64.2734 8H67.2734V5H64.2734V8ZM64.2734 28V31H67.2734V28H64.2734ZM67.6484 14L64.6632 14.2968L64.9319 17H67.6484V14ZM66.4688 11.875L68.2745 9.4793L68.2745 9.4793L66.4688 11.875ZM61.8672 11.4688L60.6371 8.7325L60.6277 8.73678L61.8672 11.4688ZM60.5391 12.5312L58.096 10.7902L58.0921 10.7956L60.5391 12.5312ZM60.3359 15.1719L57.7338 16.6649L57.7338 16.6649L60.3359 15.1719ZM61.0703 15.9922L59.2768 18.3971L59.2996 18.4141L59.3228 18.4306L61.0703 15.9922ZM62.1016 16.5703L60.9152 19.3258L60.9221 19.3287L60.9289 19.3316L62.1016 16.5703ZM63.25 16.9766L64.0777 14.093L64.069 14.0905L63.25 16.9766ZM64.9375 17.4609L64.1098 20.3445L64.1252 20.3489L64.1407 20.3532L64.9375 17.4609ZM67.8672 18.8281L66.0073 21.182L66.0233 21.1947L66.0395 21.2071L67.8672 18.8281ZM68.8906 20.0391L66.2428 21.4493L66.252 21.4666L66.2614 21.4837L68.8906 20.0391ZM68.6172 24.0547L66.1005 22.4217L66.1005 22.4218L68.6172 24.0547ZM66.7109 25.6797L68.0047 28.3864L68.0116 28.3831L68.0185 28.3797L66.7109 25.6797ZM60.8984 25.7344L59.657 28.4655L59.6644 28.4688L59.6718 28.4721L60.8984 25.7344ZM59.0078 24.2266L61.4477 22.481L59.0078 24.2266ZM58.2344 22V19H55.0238L55.2413 22.2032L58.2344 22ZM59.7344 22L62.7242 21.7529L62.4967 19H59.7344V22ZM60.3594 23.6016L58.0547 25.5221L60.3594 23.6016ZM61.7812 24.6016L60.6843 27.3938L60.6951 27.3981L60.706 27.4022L61.7812 24.6016ZM65.8594 24.5391L67.0411 27.2965L67.0522 27.2917L65.8594 24.5391ZM67.3281 23.4141L64.9188 21.6265L64.9156 21.6309L67.3281 23.4141ZM67.4453 20.3672L65.0575 22.1833L65.0637 22.1915L65.07 22.1996L67.4453 20.3672ZM66.2656 19.4375L64.924 22.1208L64.9351 22.1263L66.2656 19.4375ZM64.5234 18.7734L63.6776 21.6517L63.6843 21.6537L64.5234 18.7734ZM62.6094 18.2109L61.7506 21.0854L61.7635 21.0892L62.6094 18.2109ZM59.6875 16.6562L61.7593 14.4866L61.7593 14.4866L59.6875 16.6562ZM59.3359 11.8594L56.8856 10.1286L56.8829 10.1324L59.3359 11.8594ZM61.2109 10.3281L62.4727 13.0499L62.4806 13.0462L61.2109 10.3281ZM66.5156 10.3203L65.2258 13.0289L65.2258 13.0289L66.5156 10.3203ZM68.3359 11.8281L65.8773 13.5472L65.8853 13.5586L65.8934 13.5699L68.3359 11.8281ZM69.0625 14V17H72.1801L72.0603 13.8847L69.0625 14ZM66.25 28V8H60.25V28H66.25ZM63.25 11H64.2734V5H63.25V11ZM61.2734 8V28H67.2734V8H61.2734ZM64.2734 25H63.25V31H64.2734V25ZM70.6337 13.7032C70.4646 12.0017 69.6595 10.5232 68.2745 9.4793L64.663 14.2707C64.6866 14.2884 64.692 14.2959 64.6873 14.2906C64.6852 14.2882 64.6816 14.2839 64.6772 14.2776C64.6728 14.2713 64.6683 14.2643 64.6642 14.2569C64.6601 14.2495 64.657 14.243 64.6549 14.2379C64.6528 14.233 64.6521 14.2306 64.6525 14.2317C64.653 14.2333 64.6588 14.2532 64.6632 14.2968L70.6337 13.7032ZM68.2745 9.4793C66.9544 8.48429 65.4045 8.08594 63.8359 8.08594V14.0859C64.382 14.0859 64.5873 14.2136 64.663 14.2707L68.2745 9.4793ZM63.8359 8.08594C62.7491 8.08594 61.66 8.2727 60.6371 8.73252L63.0972 14.205C63.2098 14.1544 63.4332 14.0859 63.8359 14.0859V8.08594ZM60.6277 8.73678C59.638 9.1858 58.7586 9.86034 58.096 10.7902L62.9822 14.2723C62.9796 14.2759 62.9784 14.2755 62.9874 14.2684C62.9977 14.2601 63.0322 14.2345 63.1067 14.2007L60.6277 8.73678ZM58.0921 10.7956C57.3984 11.7736 57.0625 12.8963 57.0625 14.0625H63.0625C63.0625 14.0567 63.0627 14.0881 63.0461 14.1415C63.0291 14.1961 63.0049 14.2403 62.986 14.2669L58.0921 10.7956ZM57.0625 14.0625C57.0625 14.9277 57.2535 15.8277 57.7338 16.6649L62.938 13.6789C62.9915 13.7721 63.025 13.8625 63.0437 13.9383C63.0618 14.012 63.0625 14.0571 63.0625 14.0625H57.0625ZM57.7338 16.6649C58.1299 17.3552 58.6561 17.9341 59.2768 18.3971L62.8638 13.5873C62.8634 13.587 62.8746 13.5955 62.8914 13.6142C62.9085 13.6333 62.9247 13.6557 62.938 13.6789L57.7338 16.6649ZM59.3228 18.4306C59.8208 18.7876 60.3545 19.0843 60.9152 19.3258L63.2879 13.8149C63.0987 13.7334 62.9448 13.6447 62.8179 13.5537L59.3228 18.4306ZM60.9289 19.3316C61.4207 19.5405 61.9216 19.718 62.431 19.8626L64.069 14.0905C63.8076 14.0163 63.5428 13.923 63.2742 13.809L60.9289 19.3316ZM62.4223 19.8601L64.1098 20.3445L65.7652 14.5774L64.0777 14.093L62.4223 19.8601ZM64.1407 20.3532C64.5137 20.4559 64.8956 20.5897 65.287 20.7574L67.6505 15.2426C67.0211 14.9728 66.3822 14.7472 65.7343 14.5687L64.1407 20.3532ZM65.287 20.7574C65.5626 20.8756 65.7995 21.0178 66.0073 21.182L69.7271 16.4742C69.0912 15.9718 68.3957 15.5619 67.6505 15.2426L65.287 20.7574ZM66.0395 21.2071C66.1244 21.2723 66.1871 21.3447 66.2428 21.4493L71.5385 18.6288C71.0838 17.7751 70.4641 17.0402 69.6949 16.4492L66.0395 21.2071ZM66.2614 21.4837C66.2282 21.4233 66.2813 21.4722 66.2813 21.75H72.2813C72.2813 20.6945 72.0739 19.6028 71.5199 18.5944L66.2614 21.4837ZM66.2813 21.75C66.2813 22.0552 66.2115 22.2507 66.1005 22.4217L71.1338 25.6876C71.9083 24.4941 72.2813 23.1531 72.2813 21.75H66.2813ZM66.1005 22.4218C65.9936 22.5866 65.8048 22.7852 65.4034 22.9796L68.0185 28.3797C69.2733 27.7721 70.3554 26.8873 71.1338 25.6876L66.1005 22.4218ZM65.4172 22.973C65.0839 23.1323 64.5559 23.2734 63.7344 23.2734V29.2734C65.2254 29.2734 66.6818 29.0187 68.0047 28.3864L65.4172 22.973ZM63.7344 23.2734C62.9705 23.2734 62.4609 23.1471 62.1251 22.9966L59.6718 28.4721C60.9402 29.0404 62.3211 29.2734 63.7344 29.2734V23.2734ZM62.1398 23.0033C61.7587 22.83 61.5648 22.6447 61.4477 22.481L56.568 25.9722C57.3675 27.0897 58.434 27.9095 59.657 28.4655L62.1398 23.0033ZM61.4477 22.481C61.3373 22.3266 61.2499 22.1276 61.2275 21.7968L55.2413 22.2032C55.3334 23.5599 55.7617 24.8452 56.568 25.9722L61.4477 22.481ZM58.2344 25H59.7344V19H58.2344V25ZM56.7446 22.2471C56.8416 23.4214 57.2518 24.5587 58.0547 25.5221L62.664 21.681C62.6755 21.6948 62.6878 21.7118 62.6993 21.7313C62.7107 21.7507 62.719 21.7684 62.7244 21.7824C62.736 21.8121 62.7288 21.8085 62.7242 21.7529L56.7446 22.2471ZM58.0547 25.5221C58.7738 26.385 59.6798 26.9992 60.6843 27.3938L62.8782 21.8093C62.7161 21.7456 62.6741 21.6931 62.664 21.681L58.0547 25.5221ZM60.706 27.4022C61.68 27.7762 62.7026 27.9375 63.7344 27.9375V21.9375C63.3287 21.9375 63.0492 21.8749 62.8565 21.8009L60.706 27.4022ZM63.7344 27.9375C64.8648 27.9375 65.9864 27.7485 67.0411 27.2965L64.6776 21.7816C64.4928 21.8609 64.1977 21.9375 63.7344 21.9375V27.9375ZM67.0522 27.2917C68.0915 26.8414 69.0297 26.1592 69.7407 25.1972L64.9156 21.6309C64.9114 21.6366 64.9006 21.6505 64.8711 21.6731C64.8399 21.697 64.7774 21.7384 64.6666 21.7864L67.0522 27.2917ZM69.7374 25.2016C70.505 24.167 70.8672 22.9684 70.8672 21.7266H64.8672C64.8672 21.7633 64.8626 21.7539 64.8747 21.716C64.8803 21.6986 64.8878 21.6803 64.8968 21.6627C64.9058 21.6453 64.914 21.6331 64.9188 21.6265L69.7374 25.2016ZM70.8672 21.7266C70.8672 20.6433 70.5753 19.513 69.8207 18.5348L65.07 22.1996C64.9858 22.0905 64.9288 21.9736 64.8965 21.8697C64.8659 21.7708 64.8672 21.7153 64.8672 21.7266H70.8672ZM69.8331 18.5511C69.218 17.7423 68.4292 17.1609 67.5962 16.7487L64.9351 22.1263C65.0241 22.1704 65.0683 22.2024 65.0825 22.2137C65.0954 22.2238 65.0817 22.2151 65.0575 22.1833L69.8331 18.5511ZM67.6073 16.7542C66.914 16.4076 66.159 16.1252 65.3626 15.8932L63.6843 21.6537C64.2108 21.8071 64.6173 21.9674 64.924 22.1208L67.6073 16.7542ZM65.3693 15.8952L63.4552 15.3327L61.7635 21.0892L63.6776 21.6517L65.3693 15.8952ZM63.4681 15.3365C62.5087 15.0499 62.0066 14.7227 61.7593 14.4866L57.6157 18.8259C58.7538 19.9127 60.1996 20.622 61.7506 21.0854L63.4681 15.3365ZM61.7593 14.4866C61.7015 14.4314 61.689 14.4016 61.6835 14.3881C61.6761 14.3702 61.6484 14.2959 61.6484 14.125H55.6484C55.6484 15.9056 56.2847 17.555 57.6157 18.8259L61.7593 14.4866ZM61.6484 14.125C61.6484 13.8322 61.7152 13.6912 61.789 13.5863L56.8829 10.1324C56.04 11.3297 55.6484 12.699 55.6484 14.125H61.6484ZM61.7863 13.5902C61.9234 13.3961 62.1235 13.2118 62.4727 13.0499L59.9492 7.60636C58.7255 8.17365 57.6756 9.01012 56.8856 10.1286L61.7863 13.5902ZM62.4806 13.0462C62.8271 12.8843 63.2736 12.7734 63.875 12.7734V6.77344C62.5076 6.77344 61.1781 7.03233 59.9413 7.61003L62.4806 13.0462ZM63.875 12.7734C64.5003 12.7734 64.9271 12.8866 65.2258 13.0289L67.8054 7.61173C66.5729 7.02482 65.2393 6.77344 63.875 6.77344V12.7734ZM65.2258 13.0289C65.5637 13.1898 65.7518 13.3676 65.8773 13.5472L70.7946 10.1091C70.0243 9.00736 68.9988 8.17999 67.8054 7.61173L65.2258 13.0289ZM65.8934 13.5699C65.9921 13.7083 66.055 13.8617 66.0647 14.1153L72.0603 13.8847C72.0075 12.5133 71.5861 11.2188 70.7785 10.0863L65.8934 13.5699ZM69.0625 11H67.6484V17H69.0625V11ZM74.5391 25.25L72.6335 27.5671L72.6418 27.5739L72.6502 27.5807L74.5391 25.25ZM72.7109 22.4297L69.8734 23.4036L69.8771 23.4143L72.7109 22.4297ZM72.7109 13.5859L69.8771 12.6013L69.8747 12.6083L72.7109 13.5859ZM74.5469 10.7656L76.4449 13.0888L76.4466 13.0875L74.5469 10.7656ZM80.2891 10.7656L78.3819 13.0814L78.3902 13.0882L78.3984 13.0949L80.2891 10.7656ZM82.125 13.5859L79.2875 14.5598L79.29 14.5671L79.2925 14.5743L82.125 13.5859ZM82.125 22.4297L79.2912 21.4451L79.2875 21.4558L82.125 22.4297ZM80.2969 25.25L82.1933 27.5746L82.1949 27.5732L80.2969 25.25ZM80.3125 23.1016L82.9124 24.5985L82.9152 24.5936L80.3125 23.1016ZM80.875 14.2656L78.0027 15.1316L78.0053 15.1403L78.008 15.1489L80.875 14.2656ZM79.5234 11.8906L77.4716 14.0793L77.4813 14.0883L79.5234 11.8906ZM74.5391 12.8984L77.1397 14.3941L77.1424 14.3892L74.5391 12.8984ZM73.9609 21.7344L71.0898 22.6044L71.0939 22.6177L73.9609 21.7344ZM75.3125 24.0938L73.2711 26.2922L73.2809 26.3012L75.3125 24.0938ZM77.4219 23.2188C76.9136 23.2188 76.6379 23.0894 76.428 22.9193L72.6502 27.5807C74.034 28.7022 75.6801 29.2188 77.4219 29.2188V23.2188ZM76.4446 22.9329C76.1797 22.7151 75.839 22.2919 75.5448 21.4451L69.8771 23.4143C70.437 25.0258 71.3151 26.4829 72.6335 27.5671L76.4446 22.9329ZM75.5485 21.4558C75.2628 20.6236 75.0781 19.4942 75.0781 18H69.0781C69.0781 19.9537 69.3153 21.7775 69.8734 23.4036L75.5485 21.4558ZM75.0781 18C75.0781 16.5116 75.2627 15.3889 75.5472 14.5635L69.8747 12.6083C69.3154 14.2308 69.0781 16.0509 69.0781 18H75.0781ZM75.5448 14.5706C75.8374 13.7283 76.1779 13.307 76.4449 13.0888L72.6488 8.4424C71.3221 9.52631 70.4386 10.9853 69.8771 12.6013L75.5448 14.5706ZM76.4466 13.0875C76.6708 12.9041 76.9437 12.7812 77.4219 12.7812V6.78125C75.6709 6.78125 74.0271 7.31468 72.6472 8.44375L76.4466 13.0875ZM77.4219 12.7812C77.9002 12.7812 78.1664 12.9039 78.3819 13.0814L82.1962 8.44983C80.818 7.31482 79.1727 6.78125 77.4219 6.78125V12.7812ZM78.3984 13.0949C78.6644 13.3108 79.0013 13.726 79.2875 14.5598L84.9625 12.612C84.4049 10.9875 83.5179 9.52252 82.1797 8.43636L78.3984 13.0949ZM79.2925 14.5743C79.5792 15.396 79.7656 16.5147 79.7656 18H85.7656C85.7656 16.0478 85.525 14.2238 84.9575 12.5976L79.2925 14.5743ZM79.7656 18C79.7656 19.4911 79.5791 20.6165 79.2912 21.4451L84.9588 23.4143C85.5251 21.7845 85.7656 19.9568 85.7656 18H79.7656ZM79.2875 21.4558C78.9997 22.2942 78.6626 22.7113 78.3988 22.9268L82.1949 27.5732C83.5249 26.4867 84.4065 25.0235 84.9625 23.4036L79.2875 21.4558ZM78.4005 22.9254C78.1993 23.0895 77.9303 23.2188 77.4219 23.2188V29.2188C79.1634 29.2188 80.8111 28.7022 82.1933 27.5746L78.4005 22.9254ZM77.4219 27.9062C79.8814 27.9062 81.7647 26.5918 82.9124 24.5985L77.7126 21.6047C77.5581 21.873 77.4623 21.9224 77.4816 21.9103C77.4887 21.9059 77.4994 21.9014 77.5049 21.8999C77.5087 21.8988 77.4851 21.9062 77.4219 21.9062V27.9062ZM82.9152 24.5936C83.9767 22.7419 84.3516 20.4433 84.3516 18H78.3516C78.3516 19.9421 78.0337 21.0446 77.7098 21.6095L82.9152 24.5936ZM84.3516 18C84.3516 16.3401 84.1727 14.7802 83.742 13.3824L78.008 15.1489C78.2127 15.8135 78.3516 16.7433 78.3516 18H84.3516ZM83.7473 13.3996C83.3326 12.0242 82.6567 10.7069 81.5655 9.69294L77.4813 14.0883C77.5672 14.1681 77.7924 14.4341 78.0027 15.1316L83.7473 13.3996ZM81.5753 9.70201C80.4221 8.62089 78.9826 8.07031 77.4219 8.07031V14.0703C77.4586 14.0703 77.4773 14.0733 77.4814 14.0741C77.4851 14.0747 77.48 14.0741 77.4697 14.07C77.4593 14.066 77.4517 14.0617 77.4487 14.0598C77.446 14.0581 77.4539 14.0626 77.4716 14.0792L81.5753 9.70201ZM77.4219 8.07031C74.9447 8.07031 73.0736 9.42056 71.9357 11.4076L77.1424 14.3892C77.3048 14.1056 77.4071 14.0499 77.3898 14.0609C77.3829 14.0653 77.3699 14.0713 77.3592 14.0743C77.35 14.0768 77.3669 14.0703 77.4219 14.0703V8.07031ZM71.9385 11.4028C70.8713 13.2584 70.4922 15.5565 70.4922 18H76.4922C76.4922 16.0685 76.811 14.9656 77.1397 14.3941L71.9385 11.4028ZM70.4922 18C70.4922 19.6564 70.6678 21.2114 71.0899 22.6044L76.832 20.8644C76.6291 20.1948 76.4922 19.2603 76.4922 18H70.4922ZM71.0939 22.6177C71.5137 23.9801 72.1886 25.2869 73.2711 26.2921L77.3539 21.8954C77.2698 21.8173 77.0436 21.5511 76.828 20.8511L71.0939 22.6177ZM73.2809 26.3012C74.4368 27.365 75.8701 27.9062 77.4219 27.9062V21.9062C77.3835 21.9062 77.3627 21.9031 77.3561 21.9019C77.3498 21.9008 77.3521 21.9008 77.3596 21.9036C77.3629 21.9049 77.366 21.9063 77.3687 21.9077C77.3714 21.909 77.3728 21.9099 77.3727 21.9098C77.3726 21.9098 77.3703 21.9083 77.3658 21.9048C77.3612 21.9013 77.3539 21.8954 77.3441 21.8863L73.2809 26.3012Z" fill="white"/>
</svg>
