<svg width="20" height="17" viewBox="0 0 20 17" fill="none" xmlns="http://www.w3.org/2000/svg">
<path d="M19.6893 1.91293C18.9646 2.23477 18.1862 2.45134 17.3691 2.54903C18.2036 2.04924 18.8435 1.25791 19.1449 0.314372C18.3649 0.777053 17.5001 1.11327 16.5793 1.29501C15.8425 0.509743 14.7929 0.019043 13.6313 0.019043C11.4004 0.019043 9.59212 1.82812 9.59212 4.05823C9.59212 4.37476 9.62847 4.68372 9.69663 4.97829C6.33972 4.81018 3.36372 3.20178 1.37063 0.757365C1.02381 1.35408 0.824649 2.04772 0.824649 2.78907C0.824649 4.18999 1.53722 5.42659 2.62085 6.15052C1.95901 6.12932 1.33579 5.94758 0.791329 5.64543C0.791329 5.66285 0.791329 5.67875 0.791329 5.69617C0.791329 7.65367 2.18316 9.28631 4.03162 9.6566C3.69312 9.74899 3.3357 9.79821 2.96692 9.79821C2.70718 9.79821 2.4535 9.77246 2.20739 9.72627C2.72157 11.3309 4.21336 12.4993 5.98078 12.5319C4.5988 13.6155 2.85712 14.2615 0.963983 14.2615C0.638364 14.2615 0.316532 14.2425 0 14.2047C1.78787 15.3504 3.91045 16.019 6.19206 16.019C13.6222 16.019 17.6841 9.86409 17.6841 4.52621C17.6841 4.35129 17.6803 4.17712 17.6728 4.00371C18.4626 3.4335 19.1479 2.72244 19.6893 1.91293Z" fill="white"/>
</svg>
