<svg width="40" height="40" viewBox="0 0 40 40" fill="none" xmlns="http://www.w3.org/2000/svg">
<circle cx="20" cy="20" r="19.5" fill="white" stroke="#005EFF"/>
<path d="M39.5 20C39.5 21.3779 39.3551 22.1548 39.1524 22.5351C39.0605 22.7077 38.9808 22.7527 38.9368 22.768C38.8855 22.7858 38.784 22.7969 38.5947 22.7301C38.1941 22.5887 37.641 22.1871 36.921 21.5313C36.232 20.9037 35.4463 20.0974 34.5632 19.1911L34.5002 19.1265C32.6946 17.2736 30.5113 15.0406 28.0787 13.2738C25.6488 11.5088 22.9141 10.1667 20 10.1667C17.0859 10.1667 14.3512 11.5088 11.9213 13.2738C9.48865 15.0406 7.3054 17.2736 5.49977 19.1265L5.43672 19.1912C4.55367 20.0974 3.76795 20.9038 3.07899 21.5313C2.35896 22.1871 1.80586 22.5887 1.40527 22.7301C1.21597 22.7969 1.11449 22.7858 1.06323 22.768C1.01919 22.7527 0.939549 22.7077 0.847571 22.5351C0.644891 22.1548 0.5 21.3779 0.5 20C0.5 9.23045 9.23045 0.5 20 0.5C30.7696 0.5 39.5 9.23045 39.5 20Z" fill="white" stroke="#005EFF"/>
</svg>
